<?xml version="1.0" encoding="utf-8" standalone="no"?>
<!DOCTYPE svg PUBLIC "-//W3C//DTD SVG 1.1//EN"
  "http://www.w3.org/Graphics/SVG/1.1/DTD/svg11.dtd">
<!-- Created with matplotlib (https://matplotlib.org/) -->
<svg height="345.6pt" version="1.1" viewBox="0 0 460.8 345.6" width="460.8pt" xmlns="http://www.w3.org/2000/svg" xmlns:xlink="http://www.w3.org/1999/xlink">
 <defs>
  <style type="text/css">
*{stroke-linecap:butt;stroke-linejoin:round;}
  </style>
 </defs>
 <g id="figure_1">
  <g id="patch_1">
   <path d="M 0 345.6 
L 460.8 345.6 
L 460.8 0 
L 0 0 
z
" style="fill:#ffffff;"/>
  </g>
  <g id="axes_1">
   <g id="patch_2">
    <path d="M 57.6 307.584 
L 414.72 307.584 
L 414.72 41.472 
L 57.6 41.472 
z
" style="fill:#ffffff;"/>
   </g>
   <g id="matplotlib.axis_1">
    <g id="xtick_1">
     <g id="line2d_1">
      <defs>
       <path d="M 0 0 
L 0 3.5 
" id="m74354ce406" style="stroke:#000000;stroke-width:0.8;"/>
      </defs>
      <g>
       <use style="stroke:#000000;stroke-width:0.8;" x="73.760163" xlink:href="#m74354ce406" y="307.584"/>
      </g>
     </g>
     <g id="text_1">
      <!-- 0 -->
      <defs>
       <path d="M 31.78125 66.40625 
Q 24.171875 66.40625 20.328125 58.90625 
Q 16.5 51.421875 16.5 36.375 
Q 16.5 21.390625 20.328125 13.890625 
Q 24.171875 6.390625 31.78125 6.390625 
Q 39.453125 6.390625 43.28125 13.890625 
Q 47.125 21.390625 47.125 36.375 
Q 47.125 51.421875 43.28125 58.90625 
Q 39.453125 66.40625 31.78125 66.40625 
z
M 31.78125 74.21875 
Q 44.046875 74.21875 50.515625 64.515625 
Q 56.984375 54.828125 56.984375 36.375 
Q 56.984375 17.96875 50.515625 8.265625 
Q 44.046875 -1.421875 31.78125 -1.421875 
Q 19.53125 -1.421875 13.0625 8.265625 
Q 6.59375 17.96875 6.59375 36.375 
Q 6.59375 54.828125 13.0625 64.515625 
Q 19.53125 74.21875 31.78125 74.21875 
z
" id="DejaVuSans-48"/>
      </defs>
      <g transform="translate(70.578913 322.182437)scale(0.1 -0.1)">
       <use xlink:href="#DejaVuSans-48"/>
      </g>
     </g>
    </g>
    <g id="xtick_2">
     <g id="line2d_2">
      <g>
       <use style="stroke:#000000;stroke-width:0.8;" x="146.32488" xlink:href="#m74354ce406" y="307.584"/>
      </g>
     </g>
     <g id="text_2">
      <!-- 1000 -->
      <defs>
       <path d="M 12.40625 8.296875 
L 28.515625 8.296875 
L 28.515625 63.921875 
L 10.984375 60.40625 
L 10.984375 69.390625 
L 28.421875 72.90625 
L 38.28125 72.90625 
L 38.28125 8.296875 
L 54.390625 8.296875 
L 54.390625 0 
L 12.40625 0 
z
" id="DejaVuSans-49"/>
      </defs>
      <g transform="translate(133.59988 322.182437)scale(0.1 -0.1)">
       <use xlink:href="#DejaVuSans-49"/>
       <use x="63.623047" xlink:href="#DejaVuSans-48"/>
       <use x="127.246094" xlink:href="#DejaVuSans-48"/>
       <use x="190.869141" xlink:href="#DejaVuSans-48"/>
      </g>
     </g>
    </g>
    <g id="xtick_3">
     <g id="line2d_3">
      <g>
       <use style="stroke:#000000;stroke-width:0.8;" x="218.889597" xlink:href="#m74354ce406" y="307.584"/>
      </g>
     </g>
     <g id="text_3">
      <!-- 2000 -->
      <defs>
       <path d="M 19.1875 8.296875 
L 53.609375 8.296875 
L 53.609375 0 
L 7.328125 0 
L 7.328125 8.296875 
Q 12.9375 14.109375 22.625 23.890625 
Q 32.328125 33.6875 34.8125 36.53125 
Q 39.546875 41.84375 41.421875 45.53125 
Q 43.3125 49.21875 43.3125 52.78125 
Q 43.3125 58.59375 39.234375 62.25 
Q 35.15625 65.921875 28.609375 65.921875 
Q 23.96875 65.921875 18.8125 64.3125 
Q 13.671875 62.703125 7.8125 59.421875 
L 7.8125 69.390625 
Q 13.765625 71.78125 18.9375 73 
Q 24.125 74.21875 28.421875 74.21875 
Q 39.75 74.21875 46.484375 68.546875 
Q 53.21875 62.890625 53.21875 53.421875 
Q 53.21875 48.921875 51.53125 44.890625 
Q 49.859375 40.875 45.40625 35.40625 
Q 44.1875 33.984375 37.640625 27.21875 
Q 31.109375 20.453125 19.1875 8.296875 
z
" id="DejaVuSans-50"/>
      </defs>
      <g transform="translate(206.164597 322.182437)scale(0.1 -0.1)">
       <use xlink:href="#DejaVuSans-50"/>
       <use x="63.623047" xlink:href="#DejaVuSans-48"/>
       <use x="127.246094" xlink:href="#DejaVuSans-48"/>
       <use x="190.869141" xlink:href="#DejaVuSans-48"/>
      </g>
     </g>
    </g>
    <g id="xtick_4">
     <g id="line2d_4">
      <g>
       <use style="stroke:#000000;stroke-width:0.8;" x="291.454315" xlink:href="#m74354ce406" y="307.584"/>
      </g>
     </g>
     <g id="text_4">
      <!-- 3000 -->
      <defs>
       <path d="M 40.578125 39.3125 
Q 47.65625 37.796875 51.625 33 
Q 55.609375 28.21875 55.609375 21.1875 
Q 55.609375 10.40625 48.1875 4.484375 
Q 40.765625 -1.421875 27.09375 -1.421875 
Q 22.515625 -1.421875 17.65625 -0.515625 
Q 12.796875 0.390625 7.625 2.203125 
L 7.625 11.71875 
Q 11.71875 9.328125 16.59375 8.109375 
Q 21.484375 6.890625 26.8125 6.890625 
Q 36.078125 6.890625 40.9375 10.546875 
Q 45.796875 14.203125 45.796875 21.1875 
Q 45.796875 27.640625 41.28125 31.265625 
Q 36.765625 34.90625 28.71875 34.90625 
L 20.21875 34.90625 
L 20.21875 43.015625 
L 29.109375 43.015625 
Q 36.375 43.015625 40.234375 45.921875 
Q 44.09375 48.828125 44.09375 54.296875 
Q 44.09375 59.90625 40.109375 62.90625 
Q 36.140625 65.921875 28.71875 65.921875 
Q 24.65625 65.921875 20.015625 65.03125 
Q 15.375 64.15625 9.8125 62.3125 
L 9.8125 71.09375 
Q 15.4375 72.65625 20.34375 73.4375 
Q 25.25 74.21875 29.59375 74.21875 
Q 40.828125 74.21875 47.359375 69.109375 
Q 53.90625 64.015625 53.90625 55.328125 
Q 53.90625 49.265625 50.4375 45.09375 
Q 46.96875 40.921875 40.578125 39.3125 
z
" id="DejaVuSans-51"/>
      </defs>
      <g transform="translate(278.729315 322.182437)scale(0.1 -0.1)">
       <use xlink:href="#DejaVuSans-51"/>
       <use x="63.623047" xlink:href="#DejaVuSans-48"/>
       <use x="127.246094" xlink:href="#DejaVuSans-48"/>
       <use x="190.869141" xlink:href="#DejaVuSans-48"/>
      </g>
     </g>
    </g>
    <g id="xtick_5">
     <g id="line2d_5">
      <g>
       <use style="stroke:#000000;stroke-width:0.8;" x="364.019032" xlink:href="#m74354ce406" y="307.584"/>
      </g>
     </g>
     <g id="text_5">
      <!-- 4000 -->
      <defs>
       <path d="M 37.796875 64.3125 
L 12.890625 25.390625 
L 37.796875 25.390625 
z
M 35.203125 72.90625 
L 47.609375 72.90625 
L 47.609375 25.390625 
L 58.015625 25.390625 
L 58.015625 17.1875 
L 47.609375 17.1875 
L 47.609375 0 
L 37.796875 0 
L 37.796875 17.1875 
L 4.890625 17.1875 
L 4.890625 26.703125 
z
" id="DejaVuSans-52"/>
      </defs>
      <g transform="translate(351.294032 322.182437)scale(0.1 -0.1)">
       <use xlink:href="#DejaVuSans-52"/>
       <use x="63.623047" xlink:href="#DejaVuSans-48"/>
       <use x="127.246094" xlink:href="#DejaVuSans-48"/>
       <use x="190.869141" xlink:href="#DejaVuSans-48"/>
      </g>
     </g>
    </g>
   </g>
   <g id="matplotlib.axis_2">
    <g id="ytick_1">
     <g id="line2d_6">
      <defs>
       <path d="M 0 0 
L -3.5 0 
" id="mc9ab343dc9" style="stroke:#000000;stroke-width:0.8;"/>
      </defs>
      <g>
       <use style="stroke:#000000;stroke-width:0.8;" x="57.6" xlink:href="#mc9ab343dc9" y="287.440529"/>
      </g>
     </g>
     <g id="text_6">
      <!-- 0.33 -->
      <defs>
       <path d="M 10.6875 12.40625 
L 21 12.40625 
L 21 0 
L 10.6875 0 
z
" id="DejaVuSans-46"/>
      </defs>
      <g transform="translate(28.334375 291.239748)scale(0.1 -0.1)">
       <use xlink:href="#DejaVuSans-48"/>
       <use x="63.623047" xlink:href="#DejaVuSans-46"/>
       <use x="95.410156" xlink:href="#DejaVuSans-51"/>
       <use x="159.033203" xlink:href="#DejaVuSans-51"/>
      </g>
     </g>
    </g>
    <g id="ytick_2">
     <g id="line2d_7">
      <g>
       <use style="stroke:#000000;stroke-width:0.8;" x="57.6" xlink:href="#mc9ab343dc9" y="229.408066"/>
      </g>
     </g>
     <g id="text_7">
      <!-- 0.34 -->
      <g transform="translate(28.334375 233.207284)scale(0.1 -0.1)">
       <use xlink:href="#DejaVuSans-48"/>
       <use x="63.623047" xlink:href="#DejaVuSans-46"/>
       <use x="95.410156" xlink:href="#DejaVuSans-51"/>
       <use x="159.033203" xlink:href="#DejaVuSans-52"/>
      </g>
     </g>
    </g>
    <g id="ytick_3">
     <g id="line2d_8">
      <g>
       <use style="stroke:#000000;stroke-width:0.8;" x="57.6" xlink:href="#mc9ab343dc9" y="171.375602"/>
      </g>
     </g>
     <g id="text_8">
      <!-- 0.35 -->
      <defs>
       <path d="M 10.796875 72.90625 
L 49.515625 72.90625 
L 49.515625 64.59375 
L 19.828125 64.59375 
L 19.828125 46.734375 
Q 21.96875 47.46875 24.109375 47.828125 
Q 26.265625 48.1875 28.421875 48.1875 
Q 40.625 48.1875 47.75 41.5 
Q 54.890625 34.8125 54.890625 23.390625 
Q 54.890625 11.625 47.5625 5.09375 
Q 40.234375 -1.421875 26.90625 -1.421875 
Q 22.3125 -1.421875 17.546875 -0.640625 
Q 12.796875 0.140625 7.71875 1.703125 
L 7.71875 11.625 
Q 12.109375 9.234375 16.796875 8.0625 
Q 21.484375 6.890625 26.703125 6.890625 
Q 35.15625 6.890625 40.078125 11.328125 
Q 45.015625 15.765625 45.015625 23.390625 
Q 45.015625 31 40.078125 35.4375 
Q 35.15625 39.890625 26.703125 39.890625 
Q 22.75 39.890625 18.8125 39.015625 
Q 14.890625 38.140625 10.796875 36.28125 
z
" id="DejaVuSans-53"/>
      </defs>
      <g transform="translate(28.334375 175.174821)scale(0.1 -0.1)">
       <use xlink:href="#DejaVuSans-48"/>
       <use x="63.623047" xlink:href="#DejaVuSans-46"/>
       <use x="95.410156" xlink:href="#DejaVuSans-51"/>
       <use x="159.033203" xlink:href="#DejaVuSans-53"/>
      </g>
     </g>
    </g>
    <g id="ytick_4">
     <g id="line2d_9">
      <g>
       <use style="stroke:#000000;stroke-width:0.8;" x="57.6" xlink:href="#mc9ab343dc9" y="113.343138"/>
      </g>
     </g>
     <g id="text_9">
      <!-- 0.36 -->
      <defs>
       <path d="M 33.015625 40.375 
Q 26.375 40.375 22.484375 35.828125 
Q 18.609375 31.296875 18.609375 23.390625 
Q 18.609375 15.53125 22.484375 10.953125 
Q 26.375 6.390625 33.015625 6.390625 
Q 39.65625 6.390625 43.53125 10.953125 
Q 47.40625 15.53125 47.40625 23.390625 
Q 47.40625 31.296875 43.53125 35.828125 
Q 39.65625 40.375 33.015625 40.375 
z
M 52.59375 71.296875 
L 52.59375 62.3125 
Q 48.875 64.0625 45.09375 64.984375 
Q 41.3125 65.921875 37.59375 65.921875 
Q 27.828125 65.921875 22.671875 59.328125 
Q 17.53125 52.734375 16.796875 39.40625 
Q 19.671875 43.65625 24.015625 45.921875 
Q 28.375 48.1875 33.59375 48.1875 
Q 44.578125 48.1875 50.953125 41.515625 
Q 57.328125 34.859375 57.328125 23.390625 
Q 57.328125 12.15625 50.6875 5.359375 
Q 44.046875 -1.421875 33.015625 -1.421875 
Q 20.359375 -1.421875 13.671875 8.265625 
Q 6.984375 17.96875 6.984375 36.375 
Q 6.984375 53.65625 15.1875 63.9375 
Q 23.390625 74.21875 37.203125 74.21875 
Q 40.921875 74.21875 44.703125 73.484375 
Q 48.484375 72.75 52.59375 71.296875 
z
" id="DejaVuSans-54"/>
      </defs>
      <g transform="translate(28.334375 117.142357)scale(0.1 -0.1)">
       <use xlink:href="#DejaVuSans-48"/>
       <use x="63.623047" xlink:href="#DejaVuSans-46"/>
       <use x="95.410156" xlink:href="#DejaVuSans-51"/>
       <use x="159.033203" xlink:href="#DejaVuSans-54"/>
      </g>
     </g>
    </g>
    <g id="ytick_5">
     <g id="line2d_10">
      <g>
       <use style="stroke:#000000;stroke-width:0.8;" x="57.6" xlink:href="#mc9ab343dc9" y="55.310674"/>
      </g>
     </g>
     <g id="text_10">
      <!-- 0.37 -->
      <defs>
       <path d="M 8.203125 72.90625 
L 55.078125 72.90625 
L 55.078125 68.703125 
L 28.609375 0 
L 18.3125 0 
L 43.21875 64.59375 
L 8.203125 64.59375 
z
" id="DejaVuSans-55"/>
      </defs>
      <g transform="translate(28.334375 59.109893)scale(0.1 -0.1)">
       <use xlink:href="#DejaVuSans-48"/>
       <use x="63.623047" xlink:href="#DejaVuSans-46"/>
       <use x="95.410156" xlink:href="#DejaVuSans-51"/>
       <use x="159.033203" xlink:href="#DejaVuSans-55"/>
      </g>
     </g>
    </g>
   </g>
   <g id="line2d_11">
    <path clip-path="url(#pb4834ab0fa)" d="M 73.832727 269.985452 
L 73.977857 266.443432 
L 74.050421 262.370108 
L 74.34068 279.371807 
L 74.413245 276.006887 
L 74.48581 276.53819 
L 74.630939 279.548908 
L 74.848633 289.112363 
L 74.921198 293.71699 
L 74.993763 288.58106 
L 75.066327 289.289464 
L 75.211457 295.488 
L 75.429151 278.1321 
L 75.501716 283.44513 
L 75.791975 278.486302 
L 75.937104 283.44513 
L 76.082234 290.529171 
L 76.154798 290.35207 
L 76.227363 287.164252 
L 76.299928 288.403959 
L 76.517622 283.799332 
L 76.590187 284.861939 
L 76.662751 281.762671 
L 76.735316 286.101646 
L 76.807881 285.747444 
L 76.880445 286.632949 
L 77.025575 283.799332 
L 77.09814 283.268029 
L 77.170704 283.976433 
L 77.243269 283.268029 
L 77.388398 286.632949 
L 77.678657 279.90311 
L 77.751222 280.434413 
L 77.823787 282.825277 
L 77.896351 278.309201 
L 77.968916 284.153534 
L 78.041481 283.622231 
L 78.114046 280.257312 
L 78.18661 280.965716 
L 78.259175 279.548908 
L 78.404304 285.03904 
L 78.476869 284.507736 
L 78.694563 275.829786 
L 78.839693 272.99617 
L 79.129952 276.892392 
L 79.202516 276.53819 
L 79.275081 272.287766 
L 79.347646 274.324428 
L 79.420211 273.350372 
L 79.492775 275.298483 
L 79.710469 272.110665 
L 79.928164 278.309201 
L 80.000728 278.1321 
L 80.073293 278.309201 
L 80.218422 275.652685 
L 80.436117 281.319918 
L 80.581246 282.382524 
L 80.726375 283.090928 
L 80.79894 273.704574 
L 80.871505 278.486302 
L 80.94407 278.309201 
L 81.016634 276.892392 
L 81.161764 280.080211 
L 81.234328 280.080211 
L 81.306893 278.574852 
L 81.379458 281.319918 
L 81.452023 279.017605 
L 81.524587 279.371807 
L 81.597152 279.017605 
L 81.669717 280.965716 
L 81.887411 277.954999 
L 81.959976 279.548908 
L 82.03254 278.929054 
L 82.105105 286.013095 
L 82.17767 285.747444 
L 82.250234 288.58106 
L 82.322799 282.205423 
L 82.395364 285.835994 
L 82.467929 282.028322 
L 82.540493 284.684837 
L 82.830752 280.345862 
L 82.903317 281.497019 
L 82.975882 280.434413 
L 83.048446 282.028322 
L 83.121011 279.017605 
L 83.193576 280.080211 
L 83.338705 283.090928 
L 83.41127 282.559625 
L 83.556399 283.799332 
L 83.701529 280.611514 
L 83.846658 285.03904 
L 84.064352 276.183988 
L 84.136917 277.246594 
L 84.282047 275.829786 
L 84.354611 278.22065 
L 84.427176 277.246594 
L 84.499741 276.183988 
L 84.572305 276.892392 
L 84.717435 280.788615 
L 84.79 275.298483 
L 84.862564 276.183988 
L 84.935129 275.829786 
L 85.007694 273.704574 
L 85.080258 274.235877 
L 85.152823 275.298483 
L 85.370517 272.819069 
L 85.443082 273.173271 
L 85.588211 276.361089 
L 85.660776 274.590079 
L 85.805906 276.626741 
L 85.951035 273.350372 
L 86.0236 275.298483 
L 86.386423 268.391543 
L 86.531553 270.959508 
L 86.749247 262.547209 
L 86.821812 265.115174 
L 86.966941 263.964018 
L 87.112071 259.713593 
L 87.184635 260.599098 
L 87.2572 258.473886 
L 87.474894 267.86024 
L 87.547459 266.08923 
L 87.692588 265.026624 
L 87.765153 265.912129 
L 87.837718 268.391543 
L 87.910282 267.683139 
L 88.055412 269.011397 
L 88.345671 264.495321 
L 88.563365 267.506038 
L 88.63593 266.08923 
L 88.708494 268.302993 
L 88.781059 267.328937 
L 88.853624 264.31822 
L 88.926188 265.380826 
L 89.071318 264.141119 
L 89.216447 267.328937 
L 89.289012 267.328937 
L 89.361577 268.568644 
L 89.434142 266.974735 
L 89.506706 267.151836 
L 89.651836 267.506038 
L 89.7244 268.125892 
L 89.796965 267.506038 
L 89.86953 265.380826 
L 89.942095 265.557927 
L 90.014659 265.380826 
L 90.159789 263.609816 
L 90.304918 265.203725 
L 90.450048 262.193007 
L 90.522612 262.547209 
L 90.595177 265.026624 
L 90.740306 260.776199 
L 90.812871 262.193007 
L 91.030565 259.713593 
L 91.320824 252.27535 
L 91.393389 253.160855 
L 91.465954 252.983754 
L 91.538518 252.983754 
L 91.611083 253.337956 
L 91.683648 253.160855 
L 91.756212 250.150138 
L 91.901342 254.223461 
L 92.191601 251.744047 
L 92.264165 252.452451 
L 92.33673 255.463168 
L 92.409295 254.754764 
L 92.48186 254.754764 
L 92.772119 248.556228 
L 92.917248 249.087531 
L 93.062377 247.13942 
L 93.280072 251.389845 
L 93.352636 250.681441 
L 93.497766 249.795936 
L 93.642895 253.337956 
L 93.933154 246.431016 
L 94.005719 246.519567 
L 94.078283 249.353183 
L 94.150848 248.556228 
L 94.223413 249.618835 
L 94.295978 252.452451 
L 94.368542 247.936375 
L 94.441107 251.035643 
L 94.513672 249.530284 
L 94.586236 249.973037 
L 94.658801 251.566946 
L 94.731366 246.785218 
L 94.876495 250.681441 
L 94.94906 251.124193 
L 95.021625 253.160855 
L 95.094189 252.983754 
L 95.311884 252.27535 
L 95.457013 255.108966 
L 95.529578 252.452451 
L 95.602142 255.286067 
L 95.819837 250.150138 
L 95.964966 254.577663 
L 96.110096 254.400562 
L 96.18266 253.337956 
L 96.255225 253.515057 
L 96.472919 256.348673 
L 96.618049 253.160855 
L 96.690613 255.286067 
L 96.763178 252.806653 
L 96.835743 253.869259 
L 96.908307 252.895204 
L 97.198566 246.431016 
L 97.271131 246.431016 
L 97.343696 245.722612 
L 97.41626 246.608117 
L 97.56139 243.951602 
L 97.851649 248.91043 
L 97.924213 248.644779 
L 98.141908 244.128703 
L 98.214472 243.5974 
L 98.287037 246.076814 
L 98.504731 241.472187 
L 98.722425 247.316521 
L 98.79499 243.863051 
L 98.867555 245.191309 
L 98.940119 243.066097 
L 99.085249 247.670723 
L 99.302943 244.837107 
L 99.375508 248.733329 
L 99.448072 246.519567 
L 99.520637 247.493622 
L 99.593202 245.634061 
L 99.665767 249.264633 
L 99.738331 248.024925 
L 99.883461 246.076814 
L 100.02859 245.899713 
L 100.101155 244.660006 
L 100.17372 241.472187 
L 100.246284 242.00349 
L 100.391414 243.68595 
L 100.536543 250.415789 
L 100.826802 237.398864 
L 100.899367 237.930167 
L 100.971932 234.919449 
L 101.044496 236.336258 
L 101.26219 239.701177 
L 101.334755 233.32554 
L 101.40732 233.679742 
L 101.479885 237.930167 
L 101.552449 237.575965 
L 101.697579 231.731631 
L 101.770143 226.064398 
L 102.060402 236.69046 
L 102.132967 235.273652 
L 102.205532 235.627854 
L 102.278096 235.627854 
L 102.350661 237.133212 
L 102.423226 236.070606 
L 102.495791 237.753066 
L 102.568355 237.044662 
L 102.713485 228.543813 
L 102.786049 231.908732 
L 102.931179 224.736141 
L 103.003744 226.772802 
L 103.076308 226.595701 
L 103.148873 226.949903 
L 103.221438 230.669025 
L 103.294003 229.252217 
L 103.366567 227.835408 
L 103.511697 221.813974 
L 103.584261 222.87658 
L 103.656826 220.574266 
L 103.729391 225.001792 
L 103.801956 224.293388 
L 103.87452 224.293388 
L 103.947085 225.178893 
L 104.164779 216.855145 
L 104.382473 213.136023 
L 104.455038 213.844428 
L 104.745297 205.343578 
L 104.817862 208.442846 
L 104.890426 205.786331 
L 105.180685 212.073417 
L 105.470944 207.114589 
L 105.543509 203.749669 
L 105.616073 204.103871 
L 105.688638 203.395467 
L 105.906332 192.769406 
L 106.196591 193.47781 
L 106.341721 186.57087 
L 106.414285 189.404486 
L 106.48685 187.633476 
L 106.559415 188.873183 
L 106.704544 179.486829 
L 107.212497 195.957224 
L 107.285062 195.071719 
L 107.357627 196.488527 
L 107.647886 183.560152 
L 107.793015 187.367824 
L 107.86558 184.268556 
L 107.938144 187.456375 
L 108.083274 184.091455 
L 108.228403 189.404486 
L 108.373533 190.998395 
L 108.446097 190.909845 
L 108.518662 187.279274 
L 108.663792 191.529698 
L 108.808921 192.061001 
L 108.881486 192.946507 
L 108.95405 197.196931 
L 109.026615 195.957224 
L 109.171745 192.238102 
L 109.244309 194.363315 
L 109.316874 193.300709 
L 109.389439 191.706799 
L 109.607133 197.01983 
L 109.679698 198.79084 
L 109.752262 198.613739 
L 109.824827 198.436638 
L 110.042521 197.01983 
L 110.115086 199.145042 
L 110.187651 198.082436 
L 110.260215 198.259537 
L 110.405345 192.592305 
L 110.47791 194.186214 
L 110.550474 191.175496 
L 110.623039 192.415204 
L 110.695604 192.592305 
L 110.840733 195.33737 
L 111.058427 191.175496 
L 111.130992 191.8839 
L 111.421251 201.801558 
L 111.71151 197.728234 
L 111.784074 197.551133 
L 112.001769 192.061001 
L 112.146898 196.045775 
L 112.219463 191.529698 
L 112.292027 194.186214 
L 112.364592 192.946507 
L 112.509722 190.644193 
L 112.582286 193.123608 
L 112.654851 188.518981 
L 112.727416 191.175496 
L 112.79998 190.644193 
L 112.94511 192.415204 
L 113.017675 191.529698 
L 113.090239 187.810577 
L 113.380498 195.957224 
L 113.525628 189.404486 
L 113.598192 189.935789 
L 113.743322 192.415204 
L 113.888451 189.050284 
L 114.106145 193.300709 
L 114.17871 192.592305 
L 114.251275 190.467092 
L 114.396404 196.134325 
L 114.468969 194.363315 
L 114.541534 195.603022 
L 114.686663 194.186214 
L 114.759228 195.603022 
L 114.904357 187.633476 
L 114.976922 190.821294 
L 115.049487 188.961734 
L 115.122051 190.11289 
L 115.194616 189.758688 
L 115.267181 189.758688 
L 115.339746 190.289991 
L 115.41231 189.581587 
L 115.484875 190.467092 
L 115.55744 190.11289 
L 115.630004 190.11289 
L 115.702569 188.164779 
L 115.775134 188.873183 
L 115.847699 187.810577 
L 116.137957 195.780123 
L 116.210522 195.603022 
L 116.283087 195.780123 
L 116.355652 196.665628 
L 116.500781 194.540416 
L 116.573346 192.946507 
L 116.645911 194.009113 
L 116.863605 190.821294 
L 117.008734 192.769406 
L 117.081299 191.8839 
L 117.153864 192.415204 
L 117.226428 191.352597 
L 117.444122 194.009113 
L 117.516687 193.832012 
L 117.589252 195.071719 
L 117.661817 191.352597 
L 117.734381 192.946507 
L 117.806946 191.706799 
L 117.879511 192.946507 
L 118.02464 189.758688 
L 118.097205 190.821294 
L 118.16977 194.009113 
L 118.242334 190.11289 
L 118.314899 191.8839 
L 118.387464 192.238102 
L 118.460028 194.806067 
L 118.532593 194.540416 
L 118.605158 195.071719 
L 118.750287 197.551133 
L 118.822852 198.082436 
L 118.895417 197.374032 
L 118.967981 200.38475 
L 119.040546 199.056492 
L 119.113111 199.145042 
L 119.185676 199.499245 
L 119.330805 197.285482 
L 119.475934 199.676346 
L 119.621064 196.488527 
L 119.693629 197.01983 
L 119.766193 196.311426 
L 119.838758 199.676346 
L 119.911323 197.196931 
L 119.983888 204.280972 
L 120.056452 204.103871 
L 120.274146 209.239801 
L 120.346711 208.885599 
L 120.419276 211.276463 
L 120.491841 206.583286 
L 120.63697 209.771104 
L 120.709535 210.479508 
L 120.854664 207.114589 
L 121.144923 212.781821 
L 121.217488 212.250518 
L 121.362617 214.729933 
L 121.580311 216.323842 
L 121.725441 217.563549 
L 121.798005 217.386448 
L 121.87057 216.500943 
L 121.943135 218.271953 
L 122.305958 213.224574 
L 122.451088 219.51166 
L 122.523653 218.271953 
L 122.596217 218.803256 
L 122.668782 219.865862 
L 122.741347 214.907034 
L 122.886476 221.10557 
L 122.959041 220.574266 
L 123.466994 229.429318 
L 123.539559 229.429318 
L 123.757253 226.241499 
L 123.974947 228.720914 
L 124.192641 221.991075 
L 124.265206 224.824691 
L 124.337771 222.168176 
L 124.410335 223.053681 
L 124.628029 219.688761 
L 124.773159 224.64759 
L 124.845724 225.355994 
L 124.990853 230.846126 
L 125.063418 230.669025 
L 125.135982 229.252217 
L 125.208547 230.314823 
L 125.281112 228.189611 
L 125.498806 234.742348 
L 125.643935 228.720914 
L 125.7165 228.189611 
L 125.789065 228.543813 
L 125.86163 230.137722 
L 125.934194 228.366712 
L 126.006759 229.075116 
L 126.079324 231.200328 
L 126.224453 228.366712 
L 126.369583 229.075116 
L 126.514712 225.355994 
L 126.587277 227.481206 
L 126.804971 224.470489 
L 126.877536 225.710196 
L 127.022665 221.459772 
L 127.09523 224.64759 
L 127.167795 224.116287 
L 127.240359 223.762085 
L 127.385489 227.658307 
L 127.530618 223.230782 
L 127.675748 229.429318 
L 127.748312 228.366712 
L 127.966006 236.867561 
L 128.038571 232.440035 
L 128.111136 234.211045 
L 128.183701 232.794237 
L 128.32883 237.841616 
L 128.401395 236.159157 
L 128.619089 233.856843 
L 128.691654 237.310313 
L 128.764218 237.044662 
L 128.836783 237.221763 
L 128.909348 237.044662 
L 129.054477 234.919449 
L 129.127042 235.804955 
L 129.417301 228.189611 
L 129.780124 234.919449 
L 129.997819 228.189611 
L 130.070383 230.314823 
L 130.142948 228.543813 
L 130.360642 232.971338 
L 130.433207 228.366712 
L 130.505772 229.340767 
L 130.578336 230.934676 
L 130.650901 228.10106 
L 130.79603 231.46598 
L 130.868595 231.200328 
L 130.94116 229.075116 
L 131.013725 229.252217 
L 131.086289 229.429318 
L 131.303983 228.189611 
L 131.376548 229.960621 
L 131.449113 228.189611 
L 131.521678 228.898015 
L 131.594242 228.720914 
L 131.666807 229.429318 
L 131.739372 229.252217 
L 131.811936 228.01251 
L 132.029631 230.669025 
L 132.102195 230.846126 
L 132.17476 228.898015 
L 132.392454 232.085833 
L 132.610148 234.742348 
L 132.682713 234.033944 
L 132.755278 228.366712 
L 132.827842 231.55453 
L 132.900407 231.023227 
L 132.972972 229.075116 
L 133.045537 229.960621 
L 133.118101 232.971338 
L 133.190666 231.200328 
L 133.263231 233.32554 
L 133.335796 233.148439 
L 133.40836 233.148439 
L 133.480925 233.502641 
L 133.626054 237.575965 
L 133.698619 236.159157 
L 133.771184 236.336258 
L 133.916313 237.841616 
L 134.061443 232.794237 
L 134.134007 236.69046 
L 134.206572 235.627854 
L 134.279137 235.096551 
L 134.351702 235.627854 
L 134.424266 235.096551 
L 134.496831 236.513359 
L 134.64196 241.649288 
L 134.714525 240.23248 
L 134.859655 243.863051 
L 135.077349 239.878278 
L 135.149913 239.701177 
L 135.222478 240.055379 
L 135.295043 237.575965 
L 135.657866 246.962319 
L 135.730431 246.608117 
L 135.802996 247.847824 
L 135.875561 246.962319 
L 135.948125 247.847824 
L 136.02069 246.785218 
L 136.093255 242.711895 
L 136.165819 243.420299 
L 136.238384 245.36841 
L 136.310949 242.534794 
L 136.383514 244.128703 
L 136.456078 243.951602 
L 136.673773 242.534794 
L 136.818902 242.711895 
L 136.891467 245.014208 
L 136.964031 244.571455 
L 137.036596 242.092041 
L 137.109161 246.608117 
L 137.181726 246.076814 
L 137.326855 243.243198 
L 137.39942 243.5974 
L 137.471984 242.977546 
L 137.617114 246.608117 
L 137.689679 245.545511 
L 137.762243 241.826389 
L 137.834808 245.014208 
L 137.907373 244.217253 
L 138.052502 243.951602 
L 138.125067 243.508849 
L 138.197632 243.5974 
L 138.342761 243.951602 
L 138.415326 243.243198 
L 138.850714 246.962319 
L 138.995843 245.191309 
L 139.068408 248.91043 
L 139.140973 248.556228 
L 139.213538 246.076814 
L 139.286102 246.608117 
L 139.358667 245.722612 
L 139.503796 242.711895 
L 139.576361 242.711895 
L 139.648926 244.837107 
L 139.86662 240.055379 
L 139.939185 240.321031 
L 140.01175 239.701177 
L 140.084314 241.826389 
L 140.229444 237.221763 
L 140.374573 235.804955 
L 140.519703 239.346975 
L 140.592267 238.46147 
L 140.664832 239.878278 
L 140.737397 238.107268 
L 140.809961 238.46147 
L 140.882526 238.284369 
L 140.955091 236.867561 
L 141.10022 240.409581 
L 141.24535 236.601909 
L 141.317914 239.524076 
L 141.390479 238.46147 
L 141.463044 237.575965 
L 141.535609 238.638571 
L 141.608173 237.221763 
L 141.680738 239.524076 
L 141.970997 227.658307 
L 142.043562 226.595701 
L 142.116126 228.01251 
L 142.406385 222.433827 
L 142.47895 223.053681 
L 142.551515 224.470489 
L 142.624079 220.751367 
L 142.696644 221.10557 
L 142.914338 217.74065 
L 143.059468 220.220064 
L 143.204597 214.464281 
L 143.277162 218.094852 
L 143.349727 216.678044 
L 143.494856 219.246009 
L 143.639985 218.094852 
L 143.785115 222.699479 
L 143.85768 221.017019 
L 144.002809 221.991075 
L 144.075374 220.397165 
L 144.293068 226.241499 
L 144.365633 224.64759 
L 144.438197 225.178893 
L 144.510762 224.55904 
L 144.655891 226.949903 
L 144.728456 224.116287 
L 144.801021 225.710196 
L 144.94615 223.762085 
L 145.09128 224.116287 
L 145.163844 222.168176 
L 145.236409 224.470489 
L 145.308974 223.673534 
L 145.381539 222.522378 
L 145.526668 224.116287 
L 145.599233 224.293388 
L 146.034621 215.261236 
L 146.107186 216.678044 
L 146.252315 217.386448 
L 146.32488 215.792539 
L 146.397445 216.500943 
L 146.542574 219.157458 
L 146.832833 213.136023 
L 146.977962 220.042963 
L 147.050527 219.51166 
L 147.268221 216.500943 
L 147.413351 218.449054 
L 147.485915 217.386448 
L 147.631045 218.449054 
L 147.776174 217.209347 
L 148.066433 222.345277 
L 148.211563 218.271953 
L 148.356692 215.96964 
L 148.429257 216.323842 
L 148.501821 218.449054 
L 148.574386 218.094852 
L 148.79208 211.896316 
L 148.864645 215.084135 
L 148.93721 212.958922 
L 149.082339 217.6521 
L 149.154904 217.386448 
L 149.227469 218.449054 
L 149.300033 214.907034 
L 149.445163 217.74065 
L 149.590292 215.792539 
L 149.735422 216.323842 
L 149.953116 211.187912 
L 150.17081 214.375731 
L 150.243375 213.844428 
L 150.315939 212.781821 
L 150.388504 213.313124 
L 150.461069 217.209347 
L 150.533634 217.032246 
L 150.606198 218.626155 
L 150.678763 217.917751 
L 150.751328 215.615438 
L 150.823892 215.792539 
L 150.896457 215.261236 
L 151.114151 216.855145 
L 151.186716 218.271953 
L 151.331845 216.323842 
L 151.476975 216.678044 
L 151.54954 215.084135 
L 151.839798 218.714706 
L 151.912363 218.449054 
L 151.984928 217.74065 
L 152.057493 215.438337 
L 152.130057 215.615438 
L 152.202622 215.084135 
L 152.275187 215.792539 
L 152.347751 218.006302 
L 152.420316 217.386448 
L 152.63801 220.574266 
L 152.78314 221.10557 
L 152.855704 219.865862 
L 153.000834 225.178893 
L 153.073399 222.345277 
L 153.145963 224.470489 
L 153.291093 219.688761 
L 153.581352 226.772802 
L 153.726481 226.4186 
L 154.01674 222.522378 
L 154.234434 229.78352 
L 154.306999 229.075116 
L 154.379564 230.314823 
L 154.452128 229.78352 
L 154.524693 227.746858 
L 154.669822 233.148439 
L 154.742387 234.033944 
L 154.814952 231.55453 
L 154.887517 232.262934 
L 154.960081 231.377429 
L 155.032646 232.262934 
L 155.105211 229.78352 
L 155.25034 237.044662 
L 155.39547 235.627854 
L 155.468034 239.346975 
L 155.758293 233.502641 
L 155.903423 234.033944 
L 156.048552 232.617136 
L 156.193681 236.513359 
L 156.266246 235.804955 
L 156.338811 233.679742 
L 156.411376 234.033944 
L 156.701634 238.815672 
L 156.919329 234.742348 
L 156.991893 234.033944 
L 157.209588 238.638571 
L 157.427282 236.424808 
L 157.572411 237.398864 
L 157.790105 233.502641 
L 157.935235 235.893505 
L 158.080364 230.669025 
L 158.370623 235.008 
L 158.443188 236.867561 
L 158.515752 236.247707 
L 158.660882 234.211045 
L 158.733447 234.388146 
L 158.878576 235.096551 
L 158.951141 235.096551 
L 159.023705 236.77901 
L 159.168835 231.908732 
L 159.313964 235.893505 
L 159.531658 233.856843 
L 159.604223 235.450753 
L 159.676788 234.919449 
L 159.749353 235.450753 
L 159.821917 233.502641 
L 159.894482 235.008 
L 160.039611 230.314823 
L 160.257306 235.804955 
L 160.475 233.148439 
L 160.547565 235.804955 
L 160.620129 233.679742 
L 160.765259 234.919449 
L 160.837823 232.617136 
L 160.910388 232.794237 
L 160.982953 234.919449 
L 161.055518 232.262934 
L 161.200647 239.169874 
L 161.345776 238.815672 
L 161.636035 235.273652 
L 161.7086 236.513359 
L 161.781165 234.033944 
L 161.853729 234.830899 
L 161.926294 236.69046 
L 161.998859 235.627854 
L 162.071424 238.195818 
L 162.361682 232.262934 
L 162.506812 234.742348 
L 162.579377 233.502641 
L 162.651941 234.742348 
L 162.797071 232.617136 
L 163.014765 234.388146 
L 163.08733 234.033944 
L 163.159894 234.388146 
L 163.232459 233.856843 
L 163.305024 234.476697 
L 163.377588 233.856843 
L 163.450153 236.867561 
L 163.522718 234.211045 
L 163.595283 235.008 
L 163.667847 233.32554 
L 163.740412 233.945394 
L 163.812977 232.794237 
L 163.885542 234.742348 
L 164.030671 231.377429 
L 164.103236 230.580474 
L 164.1758 233.148439 
L 164.248365 232.440035 
L 164.393495 228.366712 
L 164.538624 231.377429 
L 164.683753 230.491924 
L 164.756318 227.658307 
L 164.901448 229.606419 
L 164.974012 229.78352 
L 165.119142 228.01251 
L 165.336836 233.591192 
L 165.627095 228.366712 
L 165.699659 225.001792 
L 165.772224 226.949903 
L 165.844789 226.772802 
L 165.917354 226.949903 
L 166.062483 229.429318 
L 166.352742 224.64759 
L 166.570436 230.669025 
L 166.715565 230.314823 
L 166.78813 229.252217 
L 166.860695 229.78352 
L 167.005824 228.543813 
L 167.150954 230.846126 
L 167.296083 229.606419 
L 167.368648 227.304105 
L 167.513777 229.960621 
L 167.586342 228.543813 
L 167.731472 230.846126 
L 167.804036 233.32554 
L 167.876601 231.023227 
L 168.02173 234.033944 
L 168.094295 233.856843 
L 168.239425 230.491924 
L 168.311989 230.846126 
L 168.384554 230.846126 
L 168.457119 229.517868 
L 168.602248 232.794237 
L 168.892507 230.137722 
L 169.037636 232.174384 
L 169.110201 230.846126 
L 169.255331 233.591192 
L 169.327895 232.085833 
L 169.473025 233.23699 
L 169.545589 232.440035 
L 169.690719 233.32554 
L 169.908413 229.960621 
L 169.980978 228.898015 
L 170.053542 229.075116 
L 170.126107 231.731631 
L 170.271237 228.189611 
L 170.561496 235.273652 
L 170.63406 232.351485 
L 170.706625 234.211045 
L 170.924319 231.55453 
L 171.069449 232.617136 
L 171.287143 229.960621 
L 171.577402 233.148439 
L 171.649966 234.033944 
L 171.86766 232.085833 
L 171.940225 232.440035 
L 172.01279 232.262934 
L 172.085355 234.476697 
L 172.157919 231.023227 
L 172.303049 236.336258 
L 172.375613 236.867561 
L 172.448178 234.388146 
L 172.520743 234.565247 
L 172.593308 233.856843 
L 172.665872 235.450753 
L 172.738437 234.742348 
L 172.811002 235.627854 
L 172.883566 234.033944 
L 172.956131 236.159157 
L 173.028696 232.440035 
L 173.101261 235.893505 
L 173.173825 233.32554 
L 173.24639 234.033944 
L 173.318955 234.742348 
L 173.464084 232.971338 
L 173.609214 236.159157 
L 173.681778 232.440035 
L 173.826908 235.982056 
L 174.334861 228.898015 
L 174.407426 228.720914 
L 174.552555 233.502641 
L 174.62512 232.262934 
L 174.697684 231.908732 
L 174.770249 232.262934 
L 174.915379 228.366712 
L 175.133073 231.997283 
L 175.278202 229.075116 
L 175.350767 232.794237 
L 175.423332 231.200328 
L 175.495896 229.78352 
L 175.71359 234.033944 
L 175.786155 233.32554 
L 175.85872 232.794237 
L 175.931285 234.919449 
L 176.003849 232.971338 
L 176.076414 234.388146 
L 176.148979 232.085833 
L 176.221543 232.617136 
L 176.366673 232.085833 
L 176.584367 233.148439 
L 176.656932 233.679742 
L 176.729496 233.148439 
L 176.874626 234.565247 
L 176.947191 233.679742 
L 177.019755 236.867561 
L 177.09232 231.908732 
L 177.164885 236.77901 
L 177.23745 235.450753 
L 177.455144 234.388146 
L 177.527708 234.919449 
L 177.672838 228.189611 
L 177.745403 228.720914 
L 177.817967 228.720914 
L 177.890532 228.366712 
L 177.963097 229.606419 
L 178.180791 225.533095 
L 178.253356 228.01251 
L 178.398485 224.293388 
L 178.47105 223.230782 
L 178.543614 223.762085 
L 178.616179 223.584984 
L 178.833873 223.939186 
L 178.906438 222.699479 
L 178.979003 225.178893 
L 179.051567 223.407883 
L 179.196697 226.064398 
L 179.341826 223.673534 
L 179.414391 226.064398 
L 179.55952 223.407883 
L 179.70465 225.001792 
L 179.777215 224.824691 
L 179.849779 225.178893 
L 179.922344 223.584984 
L 179.994909 225.355994 
L 180.067473 224.470489 
L 180.285168 226.241499 
L 180.357732 226.064398 
L 180.430297 225.178893 
L 180.575427 227.746858 
L 180.647991 226.949903 
L 180.793121 228.543813 
L 180.93825 225.178893 
L 181.010815 225.887297 
L 181.155944 225.001792 
L 181.228509 225.178893 
L 181.373638 226.949903 
L 181.446203 224.116287 
L 181.591333 227.304105 
L 181.663897 227.569757 
L 181.736462 226.949903 
L 181.809027 225.001792 
L 181.881591 227.835408 
L 181.954156 225.178893 
L 182.026721 225.267444 
L 182.099286 224.027736 
L 182.17185 226.4186 
L 182.244415 225.710196 
L 182.462109 223.407883 
L 182.679803 228.898015 
L 182.824933 224.824691 
L 182.897497 226.949903 
L 182.970062 226.241499 
L 183.042627 223.762085 
L 183.187756 228.01251 
L 183.260321 227.835408 
L 183.40545 228.720914 
L 183.55058 227.127004 
L 183.695709 225.887297 
L 183.840839 228.189611 
L 183.913404 228.366712 
L 184.131098 225.710196 
L 184.203662 226.507151 
L 184.276227 224.824691 
L 184.348792 227.127004 
L 184.421357 226.064398 
L 184.493921 226.4186 
L 184.566486 228.01251 
L 184.639051 227.658307 
L 184.78418 222.522378 
L 184.92931 223.762085 
L 185.001874 223.230782 
L 185.219568 226.241499 
L 185.292133 225.178893 
L 185.364698 225.533095 
L 185.437263 225.178893 
L 185.582392 221.282671 
L 185.654957 223.230782 
L 185.800086 222.256726 
L 185.872651 224.116287 
L 185.945216 223.230782 
L 186.01778 223.230782 
L 186.235474 219.688761 
L 186.453169 227.215555 
L 186.525733 224.913242 
L 186.598298 227.127004 
L 186.670863 226.241499 
L 186.743427 223.762085 
L 186.961122 226.949903 
L 187.033686 226.772802 
L 187.106251 227.481206 
L 187.251381 225.178893 
L 187.39651 227.746858 
L 187.469075 228.189611 
L 187.614204 226.4186 
L 187.686769 227.215555 
L 187.759334 226.595701 
L 187.831898 227.746858 
L 187.977028 223.584984 
L 188.049592 223.230782 
L 188.122157 225.355994 
L 188.194722 225.001792 
L 188.267287 222.345277 
L 188.339851 224.64759 
L 188.412416 221.282671 
L 188.484981 222.168176 
L 188.557545 221.10557 
L 188.63011 223.584984 
L 188.702675 223.230782 
L 188.920369 221.636873 
L 189.065498 223.407883 
L 189.355757 221.10557 
L 189.428322 222.699479 
L 189.500887 221.813974 
L 189.573451 222.699479 
L 189.791146 219.51166 
L 189.86371 222.168176 
L 189.936275 221.459772 
L 190.00884 216.678044 
L 190.081404 217.386448 
L 190.153969 217.386448 
L 190.226534 217.032246 
L 190.371663 212.60472 
L 190.444228 214.552832 
L 190.516793 213.490225 
L 190.589357 215.615438 
L 190.661922 215.261236 
L 190.734487 214.464281 
L 190.807052 216.678044 
L 190.879616 213.136023 
L 190.952181 217.386448 
L 191.097311 213.490225 
L 191.169875 213.844428 
L 191.24244 215.438337 
L 191.387569 213.844428 
L 191.460134 217.209347 
L 191.532699 213.490225 
L 191.605264 214.021529 
L 191.677828 216.500943 
L 191.750393 214.552832 
L 191.822958 216.323842 
L 191.968087 214.19863 
L 192.040652 217.74065 
L 192.113217 216.678044 
L 192.185781 215.96964 
L 192.258346 217.297898 
L 192.330911 216.323842 
L 192.403475 213.401675 
L 192.548605 216.855145 
L 192.693734 211.896316 
L 192.838864 214.19863 
L 193.129123 209.505452 
L 193.201687 212.781821 
L 193.274252 210.656609 
L 193.346817 211.542114 
L 193.419381 212.427619 
L 193.564511 210.125306 
L 193.70964 212.161968 
L 193.782205 212.427619 
L 193.85477 213.844428 
L 193.927334 208.354296 
L 193.999899 208.708498 
L 194.072464 210.656609 
L 194.290158 208.531397 
L 194.362723 208.000094 
L 194.435288 208.619947 
L 194.507852 210.479508 
L 194.725546 206.671836 
L 194.870676 210.125306 
L 194.943241 209.771104 
L 195.08837 212.60472 
L 195.233499 211.542114 
L 195.306064 211.719215 
L 195.378629 212.60472 
L 195.451194 211.010811 
L 195.523758 211.896316 
L 195.668888 208.354296 
L 195.741452 208.974149 
L 195.814017 208.531397 
L 195.959147 205.69778 
L 196.031711 206.229083 
L 196.104276 203.749669 
L 196.176841 203.92677 
L 196.249405 204.280972 
L 196.32197 203.306917 
L 196.4671 204.989376 
L 196.612229 201.624457 
L 196.829923 203.749669 
L 196.902488 203.572568 
L 196.975053 203.749669 
L 197.120182 205.874881 
L 197.192747 203.749669 
L 197.265311 204.812275 
L 197.337876 203.92677 
L 197.483006 206.051982 
L 197.55557 204.103871 
L 197.628135 206.406184 
L 197.7007 205.166477 
L 197.773265 209.416902 
L 197.845829 208.354296 
L 197.918394 205.166477 
L 197.990959 205.343578 
L 198.136088 207.468791 
L 198.426347 203.572568 
L 198.571476 207.29169 
L 198.644041 207.557341 
L 198.716606 207.468791 
L 198.789171 208.885599 
L 198.9343 206.406184 
L 199.079429 206.583286 
L 199.151994 205.874881 
L 199.224559 206.848937 
L 199.297124 206.229083 
L 199.442253 207.645892 
L 199.659947 205.166477 
L 199.732512 205.166477 
L 199.805077 203.749669 
L 200.022771 208.531397 
L 200.095335 207.29169 
L 200.1679 209.239801 
L 200.240465 207.645892 
L 200.31303 210.479508 
L 200.385594 209.416902 
L 200.458159 210.479508 
L 200.603288 209.771104 
L 200.675853 211.010811 
L 200.748418 209.594003 
L 200.820983 209.771104 
L 200.893547 209.594003 
L 200.966112 209.948205 
L 201.183806 213.844428 
L 201.256371 210.83371 
L 201.328936 213.667327 
L 201.54663 209.771104 
L 201.764324 210.213857 
L 201.836889 211.010811 
L 202.199712 204.280972 
L 202.272277 205.69778 
L 202.489971 201.093154 
L 202.562536 201.093154 
L 202.635101 200.207649 
L 202.707665 201.093154 
L 202.78023 200.916053 
L 202.852795 200.916053 
L 202.925359 200.207649 
L 202.997924 201.181704 
L 203.070489 200.38475 
L 203.143054 200.738952 
L 203.288183 200.296199 
L 203.433312 201.270255 
L 203.505877 198.436638 
L 203.578442 198.967941 
L 203.723571 197.374032 
L 203.796136 198.082436 
L 204.01383 203.395467 
L 204.086395 201.801558 
L 204.15896 203.749669 
L 204.231524 203.218366 
L 204.304089 200.207649 
L 204.376654 200.916053 
L 204.521783 202.332861 
L 204.594348 202.332861 
L 204.666913 199.853447 
L 204.739477 200.916053 
L 204.812042 201.181704 
L 204.884607 200.38475 
L 204.957172 201.181704 
L 205.029736 198.436638 
L 205.102301 198.967941 
L 205.319995 202.509962 
L 205.39256 201.801558 
L 205.465125 202.332861 
L 205.537689 202.15576 
L 205.682819 200.561851 
L 205.973078 202.864164 
L 206.045642 202.687063 
L 206.118207 201.978659 
L 206.263336 202.687063 
L 206.408466 199.676346 
L 206.553595 200.207649 
L 206.698725 195.957224 
L 206.771289 197.01983 
L 206.843854 198.348088 
L 206.988984 196.311426 
L 207.061548 197.01983 
L 207.134113 194.186214 
L 207.206678 194.717517 
L 207.424372 193.123608 
L 207.496937 193.654911 
L 207.569501 192.238102 
L 207.714631 194.894618 
L 207.787196 192.946507 
L 207.85976 194.009113 
L 208.077454 189.847239 
L 208.150019 189.581587 
L 208.367713 192.061001 
L 208.440278 190.821294 
L 208.512843 191.352597 
L 208.585407 191.175496 
L 208.875666 195.24882 
L 208.948231 195.071719 
L 209.020796 196.488527 
L 209.165925 194.363315 
L 209.23849 196.842729 
L 209.383619 193.123608 
L 209.456184 194.894618 
L 209.528749 194.186214 
L 209.673878 193.300709 
L 209.819008 198.259537 
L 209.891572 195.24882 
L 209.964137 198.259537 
L 210.036702 197.551133 
L 210.254396 195.071719 
L 210.326961 195.957224 
L 210.399525 195.603022 
L 210.47209 196.134325 
L 210.544655 195.24882 
L 210.689784 198.436638 
L 210.907478 195.957224 
L 211.052608 198.79084 
L 211.125173 194.363315 
L 211.197737 194.540416 
L 211.270302 194.894618 
L 211.342867 194.717517 
L 211.487996 192.946507 
L 211.70569 192.415204 
L 211.85082 191.175496 
L 211.923384 194.717517 
L 211.995949 191.441148 
L 212.068514 193.654911 
L 212.141079 192.592305 
L 212.213643 193.123608 
L 212.358773 191.8839 
L 212.503902 193.920562 
L 212.576467 192.592305 
L 212.794161 196.311426 
L 212.866726 193.654911 
L 212.93929 194.717517 
L 213.011855 195.24882 
L 213.229549 191.8839 
L 213.302114 194.540416 
L 213.447243 190.467092 
L 213.519808 191.8839 
L 213.592373 191.706799 
L 213.664938 188.518981 
L 213.737502 189.050284 
L 213.810067 188.696082 
L 214.100326 193.832012 
L 214.31802 189.935789 
L 214.46315 187.456375 
L 214.535714 188.164779 
L 214.608279 186.393769 
L 214.680844 187.102173 
L 214.753408 190.998395 
L 214.825973 188.164779 
L 214.898538 188.696082 
L 214.971103 189.758688 
L 215.043667 188.164779 
L 215.261361 195.425921 
L 215.333926 196.311426 
L 215.624185 192.238102 
L 215.841879 195.071719 
L 216.059573 192.769406 
L 216.132138 195.780123 
L 216.349832 191.352597 
L 216.422397 190.11289 
L 216.494962 192.238102 
L 216.567526 190.467092 
L 216.640091 192.592305 
L 216.712656 192.415204 
L 216.78522 191.706799 
L 216.857785 193.47781 
L 216.93035 192.769406 
L 217.002915 191.529698 
L 217.365738 197.196931 
L 217.438303 195.780123 
L 217.510868 196.134325 
L 217.655997 201.270255 
L 217.728562 200.916053 
L 217.801127 203.306917 
L 217.873691 201.978659 
L 217.946256 204.458073 
L 218.018821 202.15576 
L 218.16395 204.546624 
L 218.381644 202.15576 
L 218.599338 205.520679 
L 218.671903 205.69778 
L 218.744468 202.864164 
L 218.817033 203.92677 
L 218.889597 205.69778 
L 219.107291 203.041265 
L 219.179856 203.572568 
L 219.252421 205.166477 
L 219.687809 199.145042 
L 219.832939 201.093154 
L 219.905503 200.738952 
L 219.978068 200.38475 
L 220.123197 195.24882 
L 220.195762 196.488527 
L 220.268327 195.868673 
L 220.413456 196.842729 
L 220.63115 193.832012 
L 220.848845 198.436638 
L 220.921409 195.24882 
L 220.993974 195.780123 
L 221.066539 196.488527 
L 221.139104 195.957224 
L 221.211668 196.311426 
L 221.284233 195.957224 
L 221.356798 197.196931 
L 221.429362 196.665628 
L 221.501927 197.728234 
L 221.574492 197.196931 
L 221.647057 195.603022 
L 221.792186 197.728234 
L 221.937315 194.186214 
L 222.00988 195.780123 
L 222.15501 197.374032 
L 222.227574 196.311426 
L 222.300139 198.79084 
L 222.372704 198.259537 
L 222.590398 200.827502 
L 222.662963 202.332861 
L 222.808092 207.29169 
L 222.880657 208.531397 
L 223.025786 202.864164 
L 223.098351 201.978659 
L 223.170916 205.69778 
L 223.24348 203.218366 
L 223.316045 206.494735 
L 223.38861 205.874881 
L 223.461174 206.583286 
L 223.533739 206.229083 
L 223.678869 203.92677 
L 223.823998 210.479508 
L 223.896563 209.594003 
L 223.969127 209.771104 
L 224.186822 207.645892 
L 224.259386 207.468791 
L 224.549645 210.302407 
L 224.62221 210.390958 
L 224.694775 208.000094 
L 224.767339 210.302407 
L 224.839904 209.416902 
L 224.912469 209.0627 
L 224.985034 210.302407 
L 225.057598 209.948205 
L 225.202728 209.0627 
L 225.347857 211.365013 
L 225.420422 210.302407 
L 225.492987 210.656609 
L 225.565551 210.302407 
L 225.710681 210.83371 
L 225.85581 213.490225 
L 225.928375 212.073417 
L 226.00094 214.907034 
L 226.073504 213.932978 
L 226.146069 215.261236 
L 226.363763 210.125306 
L 226.436328 213.136023 
L 226.508893 211.719215 
L 226.726587 213.136023 
L 226.871716 211.542114 
L 226.944281 211.453564 
L 227.016846 210.479508 
L 227.08941 212.250518 
L 227.161975 209.948205 
L 227.23454 210.302407 
L 227.307104 215.349786 
L 227.379669 214.552832 
L 227.452234 214.021529 
L 227.524799 216.678044 
L 227.597363 215.438337 
L 227.815058 213.490225 
L 227.887622 217.209347 
L 227.960187 217.032246 
L 228.032752 218.891807 
L 228.105316 215.96964 
L 228.177881 217.563549 
L 228.250446 217.032246 
L 228.395575 215.96964 
L 228.46814 212.693271 
L 228.540705 214.375731 
L 228.685834 217.386448 
L 228.758399 213.844428 
L 228.830964 214.907034 
L 229.048658 212.427619 
L 229.121222 213.844428 
L 229.266352 211.542114 
L 229.411481 214.552832 
L 229.484046 213.844428 
L 229.556611 214.110079 
L 229.629175 215.615438 
L 229.774305 213.667327 
L 229.919434 210.125306 
L 229.991999 211.542114 
L 230.209693 207.468791 
L 230.282258 209.771104 
L 230.427387 207.468791 
L 230.499952 207.645892 
L 230.717646 211.187912 
L 230.93534 208.000094 
L 231.007905 208.000094 
L 231.08047 207.29169 
L 231.225599 208.531397 
L 231.370729 204.635174 
L 231.443293 205.343578 
L 231.515858 203.92677 
L 231.660988 206.583286 
L 231.806117 204.103871 
L 231.878682 205.343578 
L 231.951246 207.29169 
L 232.023811 206.406184 
L 232.096376 206.140533 
L 232.241505 204.280972 
L 232.31407 205.69778 
L 232.386635 204.989376 
L 232.531764 204.458073 
L 232.604329 203.041265 
L 232.676894 204.989376 
L 232.894588 200.916053 
L 233.039717 205.874881 
L 233.112282 205.343578 
L 233.257411 204.812275 
L 233.475105 206.937488 
L 233.54767 205.874881 
L 233.620235 206.583286 
L 233.765364 203.572568 
L 233.837929 204.458073 
L 233.910494 205.166477 
L 233.983058 204.458073 
L 234.055623 202.509962 
L 234.128188 204.103871 
L 234.200753 203.92677 
L 234.273317 204.280972 
L 234.345882 205.69778 
L 234.418447 203.395467 
L 234.708706 208.531397 
L 234.9264 206.051982 
L 234.998965 205.432129 
L 235.144094 209.682553 
L 235.289223 209.0627 
L 235.361788 208.708498 
L 235.434353 205.874881 
L 235.506918 207.114589 
L 235.652047 206.583286 
L 235.724612 204.369523 
L 235.797176 204.812275 
L 235.942306 206.406184 
L 236.16 203.395467 
L 236.232565 206.406184 
L 236.305129 204.989376 
L 236.377694 204.458073 
L 236.522824 205.69778 
L 236.667953 202.687063 
L 236.740518 204.458073 
L 236.813082 203.572568 
L 236.885647 203.749669 
L 236.958212 204.635174 
L 237.175906 201.093154 
L 237.3936 204.458073 
L 237.611294 199.853447 
L 237.683859 200.030548 
L 237.756424 201.978659 
L 237.828988 200.561851 
L 237.974118 203.749669 
L 238.046683 203.041265 
L 238.119247 201.801558 
L 238.336942 203.92677 
L 238.409506 204.103871 
L 238.554636 206.406184 
L 238.6272 203.572568 
L 238.699765 204.458073 
L 238.77233 202.864164 
L 238.917459 206.760387 
L 239.062589 203.749669 
L 239.135153 204.458073 
L 239.207718 202.687063 
L 239.352848 205.874881 
L 239.425412 203.749669 
L 239.497977 205.874881 
L 239.570542 204.900826 
L 239.643106 205.343578 
L 239.788236 208.177195 
L 239.933365 206.229083 
L 240.00593 206.937488 
L 240.078495 206.583286 
L 240.151059 206.671836 
L 240.223624 207.468791 
L 240.368754 205.69778 
L 240.441318 205.343578 
L 240.513883 207.822993 
L 240.586448 207.29169 
L 240.659012 205.343578 
L 240.731577 207.468791 
L 240.804142 205.166477 
L 241.094401 208.708498 
L 241.166965 208.177195 
L 241.312095 209.0627 
L 241.38466 207.468791 
L 241.529789 209.771104 
L 241.602354 209.0627 
L 241.674919 209.594003 
L 241.747483 207.468791 
L 241.892613 211.719215 
L 242.037742 208.885599 
L 242.110307 209.0627 
L 242.182872 209.594003 
L 242.255436 208.885599 
L 242.328001 205.69778 
L 242.400566 205.874881 
L 242.47313 205.874881 
L 242.690825 208.354296 
L 242.835954 205.520679 
L 242.908519 207.822993 
L 242.981083 206.229083 
L 243.271342 219.334559 
L 243.489036 217.032246 
L 243.779295 211.187912 
L 243.924425 212.427619 
L 243.996989 210.83371 
L 244.142119 214.021529 
L 244.287248 207.468791 
L 244.432378 211.187912 
L 244.504942 207.468791 
L 244.577507 209.416902 
L 244.650072 209.594003 
L 244.722637 210.83371 
L 244.795201 209.328351 
L 245.012896 212.60472 
L 245.08546 212.427619 
L 245.375719 207.645892 
L 245.520849 208.885599 
L 245.665978 206.494735 
L 245.738543 207.29169 
L 245.883672 205.69778 
L 245.956237 206.583286 
L 246.101366 209.0627 
L 246.173931 208.708498 
L 246.31906 209.594003 
L 246.46419 206.051982 
L 246.536755 208.000094 
L 246.609319 208.885599 
L 246.681884 207.645892 
L 246.827013 211.187912 
L 246.899578 208.354296 
L 247.044708 214.375731 
L 247.117272 213.490225 
L 247.262402 210.479508 
L 247.625225 214.375731 
L 247.842919 208.708498 
L 248.060614 212.60472 
L 248.278308 210.302407 
L 248.496002 207.468791 
L 248.568567 206.760387 
L 248.641131 210.479508 
L 248.713696 208.000094 
L 248.786261 208.354296 
L 248.858826 207.29169 
L 248.93139 208.177195 
L 249.07652 202.509962 
L 249.149084 201.978659 
L 249.366779 206.051982 
L 249.439343 204.458073 
L 249.511908 206.760387 
L 249.657037 204.635174 
L 249.802167 206.406184 
L 249.947296 204.812275 
L 250.019861 208.177195 
L 250.092426 202.687063 
L 250.16499 203.572568 
L 250.237555 206.583286 
L 250.31012 205.343578 
L 250.382685 204.458073 
L 250.600379 206.051982 
L 250.672943 204.989376 
L 250.745508 205.520679 
L 250.818073 206.229083 
L 250.890638 205.520679 
L 250.963202 201.978659 
L 251.035767 206.051982 
L 251.108332 204.812275 
L 251.180896 205.343578 
L 251.253461 204.458073 
L 251.326026 205.69778 
L 251.398591 203.749669 
L 251.471155 204.812275 
L 251.616285 201.270255 
L 251.761414 203.218366 
L 251.833979 200.38475 
L 251.906544 200.650401 
L 251.979108 204.103871 
L 252.051673 201.624457 
L 252.124238 202.15576 
L 252.269367 208.177195 
L 252.341932 206.583286 
L 252.414497 206.937488 
L 252.487061 206.937488 
L 252.559626 207.822993 
L 252.704756 204.103871 
L 252.849885 208.000094 
L 252.92245 203.395467 
L 252.995014 205.874881 
L 253.067579 204.280972 
L 253.212709 206.583286 
L 253.357838 212.250518 
L 253.430403 210.036755 
L 253.502967 209.948205 
L 253.793226 205.874881 
L 253.865791 208.177195 
L 254.01092 204.280972 
L 254.083485 204.280972 
L 254.15605 205.343578 
L 254.228615 203.749669 
L 254.301179 205.166477 
L 254.373744 204.635174 
L 254.591438 206.406184 
L 254.664003 204.989376 
L 254.736568 205.520679 
L 254.809132 206.229083 
L 254.881697 211.542114 
L 254.954262 208.885599 
L 255.099391 203.749669 
L 255.171956 204.812275 
L 255.244521 204.812275 
L 255.38965 206.051982 
L 255.53478 202.509962 
L 255.607344 204.989376 
L 255.679909 203.218366 
L 255.752474 205.874881 
L 255.825038 204.989376 
L 255.970168 200.738952 
L 256.042733 201.270255 
L 256.115297 205.874881 
L 256.187862 201.270255 
L 256.260427 202.864164 
L 256.332991 202.864164 
L 256.405556 203.041265 
L 256.550686 198.967941 
L 256.62325 201.447356 
L 256.695815 200.38475 
L 256.76838 197.728234 
L 256.840944 201.093154 
L 256.913509 200.030548 
L 256.986074 199.322143 
L 257.203768 203.572568 
L 257.348897 199.676346 
L 257.421462 200.030548 
L 257.566592 201.270255 
L 257.784286 199.145042 
L 257.85685 199.145042 
L 258.00198 203.92677 
L 258.074545 198.79084 
L 258.147109 203.92677 
L 258.364804 198.79084 
L 258.509933 200.207649 
L 258.582498 199.145042 
L 258.655062 201.713007 
L 258.727627 201.624457 
L 258.872757 201.978659 
L 259.017886 198.967941 
L 259.090451 200.030548 
L 259.163015 199.676346 
L 259.23558 199.145042 
L 259.38071 196.488527 
L 259.598404 199.322143 
L 259.743533 198.082436 
L 259.888663 200.030548 
L 259.961227 200.207649 
L 260.033792 202.687063 
L 260.106357 201.624457 
L 260.178921 199.676346 
L 260.396616 208.619947 
L 260.46918 204.458073 
L 260.541745 207.822993 
L 260.686874 205.077927 
L 260.759439 204.989376 
L 260.904569 203.572568 
L 260.977133 205.166477 
L 261.049698 204.103871 
L 261.122263 206.406184 
L 261.194827 205.963432 
L 261.267392 206.051982 
L 261.339957 206.583286 
L 261.702781 200.296199 
L 261.920475 208.354296 
L 261.993039 204.812275 
L 262.138169 210.656609 
L 262.210734 209.594003 
L 262.283298 205.69778 
L 262.428428 208.354296 
L 262.500992 208.354296 
L 262.646122 206.406184 
L 262.718687 206.671836 
L 262.791251 206.051982 
L 262.936381 203.218366 
L 263.008945 208.177195 
L 263.08151 206.583286 
L 263.154075 209.239801 
L 263.299204 205.166477 
L 263.371769 203.92677 
L 263.444334 204.103871 
L 263.516898 205.255028 
L 263.662028 203.395467 
L 263.807157 205.520679 
L 263.879722 204.103871 
L 263.952287 206.051982 
L 264.097416 201.093154 
L 264.169981 202.687063 
L 264.242546 201.978659 
L 264.31511 203.92677 
L 264.46024 199.676346 
L 264.677934 205.343578 
L 265.113322 202.332861 
L 265.185887 203.749669 
L 265.258452 203.572568 
L 265.476146 203.041265 
L 265.621275 204.989376 
L 265.69384 202.864164 
L 265.911534 207.29169 
L 266.129228 202.864164 
L 266.346922 203.572568 
L 266.419487 201.624457 
L 266.564617 204.103871 
L 266.637181 204.635174 
L 266.782311 207.645892 
L 266.92744 205.166477 
L 267.000005 208.885599 
L 267.07257 208.177195 
L 267.145134 206.229083 
L 267.217699 208.354296 
L 267.290264 207.468791 
L 267.362828 205.874881 
L 267.435393 208.000094 
L 267.507958 204.989376 
L 267.580523 205.520679 
L 267.653087 206.051982 
L 267.725652 204.369523 
L 267.870781 205.69778 
L 267.943346 205.520679 
L 268.015911 204.812275 
L 268.088476 205.432129 
L 268.16104 203.572568 
L 268.378735 207.468791 
L 268.451299 206.051982 
L 268.523864 209.239801 
L 268.596429 204.280972 
L 268.668993 204.989376 
L 268.814123 206.406184 
L 268.886688 204.280972 
L 269.176946 214.021529 
L 269.322076 210.390958 
L 269.612335 216.146741 
L 269.684899 217.032246 
L 269.757464 214.021529 
L 269.830029 215.526887 
L 269.975158 213.490225 
L 270.047723 214.729933 
L 270.192852 213.136023 
L 270.265417 215.792539 
L 270.337982 214.19863 
L 270.410547 215.615438 
L 270.555676 212.427619 
L 270.628241 212.60472 
L 270.700805 214.19863 
L 270.845935 208.885599 
L 270.991064 212.958922 
L 271.063629 210.302407 
L 271.136194 212.693271 
L 271.208758 208.531397 
L 271.281323 210.125306 
L 271.499017 207.645892 
L 271.571582 204.103871 
L 271.644147 209.239801 
L 271.716712 206.848937 
L 271.789276 203.572568 
L 271.861841 205.166477 
L 272.079535 199.410694 
L 272.1521 200.030548 
L 272.369794 203.129816 
L 272.442359 202.15576 
L 272.514923 203.218366 
L 272.587488 203.041265 
L 272.732618 201.181704 
L 273.022876 211.365013 
L 273.168006 211.010811 
L 273.240571 210.302407 
L 273.313135 208.177195 
L 273.603394 213.490225 
L 273.675959 214.021529 
L 273.748524 212.427619 
L 273.821088 217.032246 
L 273.893653 214.907034 
L 273.966218 217.209347 
L 274.038782 214.552832 
L 274.111347 214.729933 
L 274.183912 215.96964 
L 274.256477 215.792539 
L 274.401606 212.958922 
L 274.474171 213.136023 
L 274.546735 212.250518 
L 274.836994 206.051982 
L 274.909559 210.036755 
L 274.982124 208.797048 
L 275.054689 208.000094 
L 275.199818 209.239801 
L 275.272383 205.874881 
L 275.344947 206.937488 
L 275.417512 206.760387 
L 275.635206 211.010811 
L 275.707771 208.531397 
L 275.780336 211.719215 
L 275.99803 208.177195 
L 276.070595 206.671836 
L 276.215724 209.948205 
L 276.288289 209.948205 
L 276.433418 207.645892 
L 276.578548 211.719215 
L 276.723677 205.874881 
L 276.796242 207.468791 
L 276.868806 204.458073 
L 276.941371 205.343578 
L 277.159065 206.406184 
L 277.23163 206.937488 
L 277.304195 203.92677 
L 277.449324 207.734442 
L 277.667018 201.270255 
L 277.812148 202.687063 
L 277.884712 201.270255 
L 277.957277 204.103871 
L 278.029842 199.853447 
L 278.102407 200.030548 
L 278.174971 198.436638 
L 278.247536 200.207649 
L 278.392666 195.780123 
L 278.537795 199.322143 
L 278.61036 198.082436 
L 278.682924 198.436638 
L 278.755489 202.509962 
L 278.828054 200.738952 
L 278.900619 199.145042 
L 278.973183 201.447356 
L 279.118313 196.488527 
L 279.263442 199.145042 
L 279.408572 197.196931 
L 279.481136 197.374032 
L 279.69883 200.561851 
L 279.771395 196.134325 
L 279.84396 199.853447 
L 279.916525 197.728234 
L 279.989089 201.093154 
L 280.061654 199.499245 
L 280.206783 199.322143 
L 280.279348 197.01983 
L 280.351913 199.145042 
L 280.424478 198.967941 
L 280.497042 198.613739 
L 280.569607 202.15576 
L 280.714736 199.145042 
L 280.932431 202.509962 
L 281.150125 198.259537 
L 281.222689 200.207649 
L 281.295254 198.879391 
L 281.367819 201.801558 
L 281.440384 201.270255 
L 281.512948 200.38475 
L 281.585513 202.598512 
L 281.658078 200.38475 
L 281.730643 201.447356 
L 281.803207 201.093154 
L 281.875772 198.613739 
L 282.238596 207.29169 
L 282.31116 204.546624 
L 282.383725 206.051982 
L 282.45629 204.103871 
L 282.528854 206.406184 
L 282.601419 205.69778 
L 282.673984 206.229083 
L 282.746549 204.723725 
L 282.819113 204.989376 
L 282.964243 206.937488 
L 283.036807 205.874881 
L 283.181937 209.239801 
L 283.254502 208.885599 
L 283.327066 206.937488 
L 283.399631 208.177195 
L 283.54476 203.92677 
L 283.617325 207.38024 
L 283.68989 206.229083 
L 283.835019 209.771104 
L 283.907584 205.343578 
L 283.980149 207.468791 
L 284.125278 202.687063 
L 284.270408 204.812275 
L 284.342972 204.103871 
L 284.633231 199.499245 
L 284.705796 199.676346 
L 284.778361 203.92677 
L 284.92349 198.082436 
L 284.996055 199.941997 
L 285.141184 197.374032 
L 285.286314 200.030548 
L 285.358878 198.79084 
L 285.431443 201.978659 
L 285.504008 199.322143 
L 285.576573 200.38475 
L 285.649137 202.864164 
L 285.721702 201.447356 
L 285.794267 203.041265 
L 285.866831 202.864164 
L 285.939396 203.218366 
L 286.011961 201.624457 
L 286.084526 207.114589 
L 286.15709 206.583286 
L 286.229655 208.000094 
L 286.30222 207.468791 
L 286.374784 206.760387 
L 286.447349 210.479508 
L 286.519914 209.416902 
L 286.665043 205.077927 
L 286.737608 203.92677 
L 287.100432 209.239801 
L 287.172996 207.468791 
L 287.245561 209.239801 
L 287.318126 205.343578 
L 287.463255 208.708498 
L 287.53582 207.645892 
L 287.608385 208.000094 
L 287.826079 205.786331 
L 287.898643 207.29169 
L 288.116338 203.395467 
L 288.188902 205.343578 
L 288.261467 203.041265 
L 288.334032 203.572568 
L 288.406596 204.812275 
L 288.551726 201.978659 
L 288.624291 205.69778 
L 288.696855 204.103871 
L 288.76942 204.458073 
L 288.91455 202.509962 
L 288.987114 204.103871 
L 289.132244 200.38475 
L 289.349938 207.114589 
L 289.422503 207.645892 
L 289.712761 202.864164 
L 289.785326 206.937488 
L 289.930456 202.15576 
L 290.00302 200.561851 
L 290.220714 206.051982 
L 290.293279 206.229083 
L 290.365844 208.708498 
L 290.510973 204.280972 
L 290.583538 207.29169 
L 290.656103 207.114589 
L 290.801232 202.15576 
L 290.946362 203.218366 
L 291.091491 202.332861 
L 291.164056 200.561851 
L 291.23662 202.687063 
L 291.454315 196.311426 
L 291.599444 199.322143 
L 291.744573 197.01983 
L 291.889703 203.041265 
L 291.962268 200.738952 
L 292.034832 202.509962 
L 292.252527 198.79084 
L 292.325091 200.916053 
L 292.397656 199.322143 
L 292.470221 203.395467 
L 292.542785 201.890108 
L 292.61535 205.166477 
L 292.833044 196.665628 
L 292.978174 200.207649 
L 293.050738 199.587795 
L 293.123303 200.207649 
L 293.195868 203.218366 
L 293.413562 195.071719 
L 293.486127 200.38475 
L 293.558691 198.613739 
L 293.776386 196.488527 
L 293.84895 198.348088 
L 293.99408 195.33737 
L 294.066644 195.425921 
L 294.139209 199.676346 
L 294.211774 197.905335 
L 294.284339 199.499245 
L 294.356903 196.134325 
L 294.502033 199.499245 
L 294.719727 195.425921 
L 294.792292 196.311426 
L 294.864856 199.853447 
L 294.937421 198.436638 
L 295.009986 199.322143 
L 295.08255 195.24882 
L 295.155115 195.425921 
L 295.22768 195.425921 
L 295.300245 193.47781 
L 295.372809 196.311426 
L 295.445374 195.514471 
L 295.517939 194.363315 
L 295.590504 196.488527 
L 295.663068 195.071719 
L 295.735633 196.134325 
L 295.880762 192.238102 
L 295.953327 194.540416 
L 296.025892 192.946507 
L 296.098457 193.300709 
L 296.171021 195.160269 
L 296.243586 192.769406 
L 296.388715 197.374032 
L 296.533845 195.957224 
L 296.678974 196.134325 
L 296.824104 198.525189 
L 296.969233 194.009113 
L 297.041798 196.134325 
L 297.114363 195.603022 
L 297.186927 195.603022 
L 297.259492 193.832012 
L 297.332057 195.24882 
L 297.404621 190.644193 
L 297.477186 192.061001 
L 297.549751 191.352597 
L 297.767445 196.311426 
L 297.84001 195.425921 
L 297.912574 196.842729 
L 297.985139 193.47781 
L 298.130269 200.030548 
L 298.420527 189.935789 
L 298.493092 192.769406 
L 298.638222 189.581587 
L 298.855916 196.488527 
L 298.928481 195.691572 
L 299.146175 191.706799 
L 299.218739 192.415204 
L 299.291304 187.722026 
L 299.363869 188.696082 
L 299.436434 189.050284 
L 299.508998 191.529698 
L 299.581563 191.352597 
L 299.654128 189.758688 
L 299.726692 190.467092 
L 299.799257 193.123608 
L 299.871822 191.175496 
L 300.089516 195.603022 
L 300.162081 194.806067 
L 300.234645 192.061001 
L 300.30721 195.425921 
L 300.379775 194.540416 
L 300.45234 194.540416 
L 300.670034 192.946507 
L 300.742598 194.894618 
L 300.815163 191.8839 
L 300.887728 193.123608 
L 300.960293 190.644193 
L 301.105422 194.540416 
L 301.177987 194.451865 
L 301.250551 191.175496 
L 301.323116 191.8839 
L 301.395681 192.592305 
L 301.54081 190.11289 
L 301.613375 190.467092 
L 301.68594 187.633476 
L 301.758504 188.164779 
L 301.831069 188.164779 
L 301.903634 190.998395 
L 301.976199 189.758688 
L 302.048763 190.644193 
L 302.121328 190.289991 
L 302.266458 188.164779 
L 302.339022 187.987678 
L 302.411587 189.227385 
L 302.484152 187.102173 
L 302.556716 187.987678 
L 302.91954 192.592305 
L 302.992105 190.998395 
L 303.064669 194.097663 
L 303.137234 192.061001 
L 303.354928 196.754179 
L 303.427493 195.425921 
L 303.500058 197.196931 
L 303.572622 194.540416 
L 303.717752 198.436638 
L 303.862881 192.326653 
L 303.935446 193.300709 
L 304.008011 192.769406 
L 304.15314 196.311426 
L 304.29827 191.706799 
L 304.370834 192.238102 
L 304.443399 193.832012 
L 304.515964 192.238102 
L 304.588528 193.47781 
L 304.661093 190.998395 
L 304.806223 195.603022 
L 304.878787 194.540416 
L 304.951352 194.717517 
L 305.096481 192.769406 
L 305.169046 194.363315 
L 305.241611 192.415204 
L 305.38674 196.665628 
L 305.604435 190.821294 
L 305.822129 196.488527 
L 305.894693 194.009113 
L 305.967258 194.540416 
L 306.112388 195.957224 
L 306.257517 192.592305 
L 306.475211 197.01983 
L 306.547776 194.009113 
L 306.910599 203.572568 
L 307.055729 201.624457 
L 307.128294 202.864164 
L 307.200858 201.447356 
L 307.273423 201.624457 
L 307.491117 205.69778 
L 307.563682 207.114589 
L 307.636247 205.69778 
L 307.708811 206.229083 
L 307.781376 206.406184 
L 307.853941 208.000094 
L 308.071635 204.280972 
L 308.1442 210.656609 
L 308.216764 209.0627 
L 308.289329 206.406184 
L 308.361894 210.656609 
L 308.434458 210.302407 
L 308.507023 208.708498 
L 308.579588 209.594003 
L 308.724717 208.177195 
L 308.797282 208.885599 
L 308.869847 207.734442 
L 308.942412 208.177195 
L 309.014976 208.531397 
L 309.087541 210.83371 
L 309.160106 209.771104 
L 309.23267 211.542114 
L 309.305235 209.948205 
L 309.3778 212.161968 
L 309.595494 206.051982 
L 309.813188 208.708498 
L 309.885753 203.572568 
L 309.958318 204.989376 
L 310.030882 205.343578 
L 310.103447 204.723725 
L 310.176012 206.760387 
L 310.248576 204.458073 
L 310.321141 205.166477 
L 310.466271 205.166477 
L 310.683965 208.354296 
L 310.756529 205.874881 
L 310.829094 206.937488 
L 310.901659 206.583286 
L 310.974224 203.572568 
L 311.119353 206.760387 
L 311.191918 204.458073 
L 311.264482 206.051982 
L 311.337047 204.989376 
L 311.409612 205.166477 
L 311.482177 205.166477 
L 311.554741 204.280972 
L 311.627306 204.635174 
L 311.772435 202.15576 
L 311.99013 207.468791 
L 312.207824 202.687063 
L 312.425518 206.583286 
L 312.498083 204.280972 
L 312.570647 205.69778 
L 312.643212 204.635174 
L 312.715777 204.989376 
L 312.788342 205.166477 
L 312.860906 203.749669 
L 312.933471 204.812275 
L 313.0786 201.270255 
L 313.151165 202.864164 
L 313.22373 200.738952 
L 313.441424 204.280972 
L 313.513989 202.332861 
L 313.586553 202.687063 
L 313.731683 203.92677 
L 313.804248 203.041265 
L 313.876812 205.520679 
L 314.021942 198.967941 
L 314.094506 201.978659 
L 314.239636 203.749669 
L 314.312201 203.749669 
L 314.384765 203.395467 
L 314.45733 203.749669 
L 314.602459 200.38475 
L 314.675024 203.218366 
L 314.892718 197.196931 
L 314.965283 196.665628 
L 315.182977 193.47781 
L 315.255542 196.488527 
L 315.328107 194.540416 
L 315.400671 194.717517 
L 315.473236 194.717517 
L 315.618366 195.780123 
L 315.69093 196.665628 
L 315.908624 193.832012 
L 315.981189 194.894618 
L 316.053754 193.123608 
L 316.126319 194.186214 
L 316.198883 194.009113 
L 316.271448 194.186214 
L 316.344013 192.415204 
L 316.416577 192.946507 
L 316.634272 193.56636 
L 316.706836 192.061001 
L 316.92453 197.551133 
L 316.997095 197.196931 
L 317.142225 199.499245 
L 317.287354 196.665628 
L 317.359919 198.082436 
L 317.577613 194.717517 
L 317.650178 194.186214 
L 317.722742 195.24882 
L 317.795307 198.436638 
L 317.867872 197.993886 
L 318.230695 201.447356 
L 318.30326 199.676346 
L 318.375825 200.738952 
L 318.666084 194.894618 
L 318.738648 196.665628 
L 318.956343 193.920562 
L 319.101472 198.79084 
L 319.246601 195.24882 
L 319.319166 195.780123 
L 319.464296 191.8839 
L 319.53686 192.769406 
L 319.609425 192.238102 
L 319.68199 194.717517 
L 319.754554 189.847239 
L 319.827119 191.175496 
L 319.972249 190.644193 
L 320.044813 189.935789 
L 320.117378 190.289991 
L 320.262507 192.415204 
L 320.335072 190.821294 
L 320.697896 200.207649 
L 320.77046 196.488527 
L 320.843025 198.259537 
L 320.91559 196.665628 
L 320.988155 199.322143 
L 321.133284 195.603022 
L 321.205849 200.38475 
L 321.278413 198.436638 
L 321.350978 197.196931 
L 321.423543 198.082436 
L 321.568672 194.894618 
L 321.786366 198.967941 
L 322.004061 192.238102 
L 322.14919 194.894618 
L 322.221755 193.654911 
L 322.366884 195.603022 
L 322.439449 193.654911 
L 322.512014 194.186214 
L 322.584578 196.311426 
L 322.657143 194.363315 
L 322.729708 195.071719 
L 322.802273 196.488527 
L 323.019967 189.404486 
L 323.092531 190.821294 
L 323.165096 189.404486 
L 323.237661 192.238102 
L 323.52792 186.747971 
L 323.673049 189.935789 
L 323.745614 189.758688 
L 324.035873 186.925072 
L 324.181002 185.685365 
L 324.398696 192.061001 
L 324.471261 193.743461 
L 324.543826 193.654911 
L 324.61639 194.274764 
L 324.688955 191.352597 
L 324.76152 191.706799 
L 324.834085 190.998395 
L 325.051779 195.24882 
L 325.269473 197.905335 
L 325.342038 196.665628 
L 325.414602 199.499245 
L 325.487167 197.551133 
L 325.559732 197.728234 
L 325.632297 197.374032 
L 325.777426 194.540416 
L 325.922555 200.916053 
L 326.14025 197.728234 
L 326.212814 194.186214 
L 326.285379 194.540416 
L 326.357944 194.540416 
L 326.503073 198.79084 
L 326.575638 198.259537 
L 326.720767 201.270255 
L 326.793332 197.374032 
L 326.865897 198.613739 
L 326.938461 198.525189 
L 327.011026 194.894618 
L 327.083591 197.196931 
L 327.156156 195.780123 
L 327.22872 196.488527 
L 327.37385 195.603022 
L 327.518979 199.499245 
L 327.591544 199.499245 
L 327.664109 199.676346 
L 327.736673 201.801558 
L 327.809238 198.967941 
L 327.881803 200.38475 
L 327.954367 199.853447 
L 328.172062 195.780123 
L 328.244626 197.905335 
L 328.317191 194.717517 
L 328.389756 195.24882 
L 328.46232 199.145042 
L 328.534885 197.551133 
L 328.752579 199.853447 
L 328.970273 192.061001 
L 329.115403 196.134325 
L 329.187968 195.24882 
L 329.478227 199.499245 
L 329.550791 197.728234 
L 329.768485 203.218366 
L 329.84105 201.624457 
L 329.913615 204.635174 
L 329.98618 200.561851 
L 330.058744 203.572568 
L 330.131309 203.218366 
L 330.203874 201.270255 
L 330.276438 202.24431 
L 330.349003 204.812275 
L 330.494133 200.119098 
L 330.566697 200.738952 
L 330.711827 203.572568 
L 330.784391 201.978659 
L 330.856956 203.395467 
L 330.929521 201.270255 
L 331.07465 203.041265 
L 331.147215 201.801558 
L 331.21978 202.864164 
L 331.364909 200.38475 
L 331.437474 203.395467 
L 331.510039 202.15576 
L 331.655168 199.145042 
L 331.872862 203.572568 
L 332.090556 196.842729 
L 332.380815 203.041265 
L 332.525945 200.207649 
L 332.598509 200.38475 
L 332.743639 203.92677 
L 332.816204 200.38475 
L 332.888768 201.270255 
L 333.033898 203.749669 
L 333.106462 203.041265 
L 333.179027 203.395467 
L 333.251592 205.520679 
L 333.324157 202.332861 
L 333.396721 204.635174 
L 333.469286 204.458073 
L 333.614415 200.561851 
L 333.68698 197.905335 
L 333.759545 198.879391 
L 333.83211 198.613739 
L 333.977239 195.603022 
L 334.049804 195.957224 
L 334.122368 196.665628 
L 334.194933 195.071719 
L 334.267498 196.311426 
L 334.412627 204.989376 
L 334.485192 204.812275 
L 334.630321 206.671836 
L 334.702886 205.874881 
L 334.775451 206.583286 
L 334.848016 206.229083 
L 334.92058 203.041265 
L 334.993145 205.255028 
L 335.06571 204.812275 
L 335.138274 203.749669 
L 335.210839 206.229083 
L 335.501098 200.827502 
L 335.718792 204.280972 
L 335.791357 209.416902 
L 335.863922 206.937488 
L 336.009051 207.911543 
L 336.081616 209.771104 
L 336.154181 208.265745 
L 336.226745 209.771104 
L 336.29931 206.229083 
L 336.444439 215.615438 
L 336.952392 208.354296 
L 337.097522 211.365013 
L 337.170087 211.010811 
L 337.53291 205.166477 
L 337.605475 201.270255 
L 337.750604 206.937488 
L 337.823169 205.077927 
L 337.968298 208.885599 
L 338.040863 206.583286 
L 338.113428 209.505452 
L 338.258557 204.103871 
L 338.331122 206.229083 
L 338.476251 210.302407 
L 338.621381 205.874881 
L 338.693946 213.490225 
L 338.839075 205.874881 
L 338.91164 206.583286 
L 339.129334 212.427619 
L 339.201899 211.187912 
L 339.274463 212.870372 
L 339.492158 206.760387 
L 339.564722 207.468791 
L 339.782416 201.447356 
L 339.854981 200.030548 
L 340.000111 204.989376 
L 340.290369 209.771104 
L 340.362934 208.974149 
L 340.435499 211.896316 
L 340.508064 211.630665 
L 340.580628 212.781821 
L 340.653193 210.302407 
L 340.725758 216.323842 
L 340.798322 214.818483 
L 340.943452 206.229083 
L 341.088581 211.187912 
L 341.161146 208.708498 
L 341.233711 209.416902 
L 341.306275 210.125306 
L 341.596534 204.458073 
L 341.669099 206.583286 
L 341.741664 206.051982 
L 341.814228 206.583286 
L 341.886793 201.978659 
L 342.104487 206.760387 
L 342.539876 196.842729 
L 342.61244 197.728234 
L 342.830135 204.635174 
L 342.902699 200.916053 
L 343.120393 204.989376 
L 343.265523 202.687063 
L 343.338088 203.83822 
L 343.410652 200.738952 
L 343.555782 205.520679 
L 343.773476 195.957224 
L 343.846041 199.322143 
L 343.918605 195.780123 
L 343.99117 197.196931 
L 344.063735 198.79084 
L 344.136299 195.603022 
L 344.281429 202.15576 
L 344.353994 200.030548 
L 344.426558 199.145042 
L 344.499123 199.853447 
L 344.716817 193.300709 
L 344.789382 196.311426 
L 344.934511 192.238102 
L 345.079641 193.743461 
L 345.152205 192.238102 
L 345.22477 192.946507 
L 345.297335 192.592305 
L 345.3699 190.998395 
L 345.587594 199.322143 
L 345.732723 192.061001 
L 345.805288 196.045775 
L 345.877853 195.780123 
L 346.022982 192.149552 
L 346.240676 192.769406 
L 346.385806 186.216668 
L 346.45837 188.164779 
L 346.530935 183.383051 
L 346.6035 187.987678 
L 346.676065 182.674647 
L 346.748629 187.013622 
L 346.821194 183.383051 
L 346.893759 186.925072 
L 347.038888 180.726536 
L 347.111453 181.43494 
L 347.256582 176.29901 
L 347.329147 176.476111 
L 347.546841 181.080738 
L 347.619406 176.476111 
L 347.691971 180.018132 
L 347.764535 178.778425 
L 347.8371 180.460884 
L 347.909665 175.413505 
L 347.982229 177.715818 
L 348.054794 179.486829 
L 348.127359 178.07002 
L 348.199924 178.424223 
L 348.272488 177.804369 
L 348.345053 177.892919 
L 348.417618 177.892919 
L 348.490182 177.538717 
L 348.853006 169.923373 
L 348.925571 172.579889 
L 349.0707 166.204252 
L 349.288394 169.834823 
L 349.578653 161.245423 
L 349.651218 163.016433 
L 349.723783 155.755291 
L 349.796347 157.526302 
L 349.941477 159.651514 
L 350.014042 159.651514 
L 350.086606 155.401089 
L 350.159171 159.562963 
L 350.3043 154.338483 
L 350.376865 154.781236 
L 350.44943 152.03617 
L 350.521995 152.390372 
L 350.667124 156.109493 
L 350.884818 150.442261 
L 351.029948 148.317048 
L 351.102512 154.515584 
L 351.175077 152.03617 
L 351.247642 150.619362 
L 351.465336 155.046887 
L 351.537901 148.67125 
L 351.610465 150.088059 
L 351.755595 155.046887 
L 351.828159 154.692685 
L 351.900724 148.848351 
L 351.973289 151.150665 
L 352.045854 149.468205 
L 352.118418 150.26516 
L 352.263548 149.556755 
L 352.336112 144.243725 
L 352.408677 146.90024 
L 352.626371 143.004018 
L 352.698936 143.004018 
L 352.844066 140.878805 
L 352.989195 143.800972 
L 353.06176 148.848351 
L 353.134324 148.317048 
L 353.206889 143.889523 
L 353.279454 144.597927 
L 353.352019 146.191836 
L 353.424583 143.181119 
L 353.497148 146.90024 
L 353.569713 139.816199 
L 353.642277 143.535321 
L 353.714842 143.004018 
L 353.932536 150.530811 
L 354.005101 147.520094 
L 354.15023 153.452978 
L 354.222795 153.275877 
L 354.440489 150.973564 
L 354.513054 150.619362 
L 354.585619 153.984281 
L 354.658183 153.275877 
L 354.803313 145.483432 
L 354.948442 147.431543 
L 355.021007 145.483432 
L 355.093572 146.191836 
L 355.166136 150.619362 
L 355.238701 148.67125 
L 355.383831 150.442261 
L 355.456395 148.848351 
L 355.52896 149.025452 
L 355.601525 148.67125 
L 355.819219 145.837634 
L 355.964348 149.202553 
L 356.036913 149.291104 
L 356.109478 145.837634 
L 356.182043 149.025452 
L 356.254607 144.775028 
L 356.327172 147.697195 
L 356.544866 140.524603 
L 356.689996 144.597927 
L 356.76256 144.420826 
L 356.835125 146.368937 
L 356.90769 139.9933 
L 357.052819 143.978073 
L 357.125384 141.67576 
L 357.197949 141.76431 
L 357.415643 146.368937 
L 357.488207 147.077341 
L 357.705902 139.90475 
L 357.778466 141.76431 
L 357.99616 144.066624 
L 358.068725 143.800972 
L 358.14129 142.826917 
L 358.213855 144.775028 
L 358.286419 143.535321 
L 358.358984 144.775028 
L 358.504113 138.399391 
L 358.576678 143.004018 
L 358.649243 139.9933 
L 358.721808 142.295613 
L 358.794372 141.498659 
L 358.866937 140.878805 
L 358.939502 142.826917 
L 359.229761 131.669552 
L 359.37489 139.816199 
L 359.447455 136.982583 
L 359.592584 141.410108 
L 359.955408 137.513886 
L 360.100537 138.22229 
L 360.390796 131.492451 
L 360.463361 133.263461 
L 360.535926 129.190138 
L 360.60849 130.606946 
L 360.681055 127.95043 
L 360.75362 128.835936 
L 360.826184 128.481734 
L 360.971314 123.877107 
L 361.043879 126.356521 
L 361.116443 124.939713 
L 361.189008 125.825218 
L 361.261573 124.231309 
L 361.334137 124.939713 
L 361.406702 123.522905 
L 361.551832 129.367239 
L 361.696961 128.304633 
L 361.769526 128.658835 
L 361.914655 126.002319 
L 362.204914 132.555057 
L 362.277479 131.138249 
L 362.422608 132.732158 
L 362.712867 126.887824 
L 362.785432 129.190138 
L 362.930561 125.471016 
L 363.003126 129.013037 
L 363.148255 122.991602 
L 363.22082 125.825218 
L 363.293385 122.991602 
L 363.36595 123.877107 
L 363.511079 122.106097 
L 363.583644 122.814501 
L 363.656208 122.283198 
L 363.728773 119.095379 
L 363.801338 121.663344 
L 363.873903 119.626682 
L 363.946467 120.335086 
L 364.236726 126.533622 
L 364.309291 123.877107 
L 364.381856 126.533622 
L 364.526985 121.574794 
L 364.59955 125.116814 
L 364.672114 119.626682 
L 364.744679 122.6374 
L 364.817244 120.157985 
L 364.889809 121.928996 
L 365.107503 116.261763 
L 365.180067 118.829728 
L 365.252632 116.970167 
L 365.325197 119.449581 
L 365.470326 114.490753 
L 365.542891 118.032773 
L 365.615456 116.438864 
L 365.760585 113.428146 
L 365.905715 118.209874 
L 365.978279 116.261763 
L 366.050844 117.324369 
L 366.123409 113.251045 
L 366.195974 115.110606 
L 366.268538 113.428146 
L 366.413668 116.615965 
L 366.558797 110.59453 
L 366.703927 114.313652 
L 366.921621 107.406712 
L 367.06675 113.605247 
L 367.139315 111.125833 
L 367.21188 113.251045 
L 367.284444 111.302934 
L 367.357009 115.376258 
L 367.502138 111.214384 
L 367.574703 112.011338 
L 367.647268 111.657136 
L 367.792397 112.011338 
L 367.864962 118.386975 
L 367.937527 116.084662 
L 368.010091 116.084662 
L 368.082656 116.615965 
L 368.227786 120.866389 
L 368.30035 119.27248 
L 368.372915 120.157985 
L 368.44548 118.918278 
L 368.518044 119.095379 
L 368.590609 119.626682 
L 368.663174 118.741177 
L 368.808303 114.490753 
L 368.880868 113.428146 
L 369.025997 115.996111 
L 369.098562 111.391485 
L 369.171127 112.896843 
L 369.243692 110.417429 
L 369.316256 111.657136 
L 369.388821 114.313652 
L 369.461386 112.011338 
L 369.533951 113.959449 
L 369.606515 113.428146 
L 369.67908 112.719742 
L 369.751645 115.553359 
L 369.824209 112.896843 
L 369.896774 113.251045 
L 370.259598 106.167004 
L 370.332162 108.82352 
L 370.404727 105.4586 
L 370.477292 108.469318 
L 370.622421 105.104398 
L 370.767551 106.698307 
L 370.840115 105.281499 
L 370.91268 108.292217 
L 371.05781 101.208176 
L 371.275504 107.760914 
L 371.420633 107.318161 
L 371.493198 103.156287 
L 371.565763 107.05251 
L 371.638327 104.927297 
L 371.856021 111.657136 
L 372.073716 103.510489 
L 372.14628 103.333388 
L 372.218845 105.281499 
L 372.29141 102.624984 
L 372.363974 106.521206 
L 372.436539 102.093681 
L 372.509104 106.963959 
L 372.581669 105.4586 
L 372.654233 104.750196 
L 372.871928 109.177722 
L 373.017057 100.853974 
L 373.089622 102.979186 
L 373.162186 102.802085 
L 373.379881 93.32718 
L 373.452445 96.603549 
L 373.597575 85.800387 
L 373.815269 91.64472 
L 374.105528 88.279801 
L 374.323222 96.957751 
L 374.468351 89.87371 
L 374.540916 91.821821 
L 374.613481 91.821821 
L 374.831175 99.968469 
L 375.193998 91.467619 
L 375.266563 95.540943 
L 375.484257 84.914881 
L 375.556822 87.040094 
L 375.774516 80.133154 
L 375.847081 82.081265 
L 375.99221 77.83084 
L 376.064775 79.247649 
L 376.13734 75.439977 
L 376.209904 76.05983 
L 376.282469 76.414032 
L 376.355034 74.111719 
L 376.427599 79.601851 
L 376.645293 73.757517 
L 376.717858 72.51781 
L 376.790422 65.965072 
L 376.862987 67.204779 
L 376.935552 68.621587 
L 377.153246 63.485657 
L 377.225811 61.891748 
L 377.298375 63.662758 
L 377.516069 60.829142 
L 377.588634 62.777253 
L 377.661199 59.589435 
L 377.733764 60.829142 
L 377.806328 61.714647 
L 377.878893 60.47494 
L 378.024022 63.131455 
L 378.096587 62.24595 
L 378.169152 64.548264 
L 378.241717 62.954354 
L 378.314281 63.220006 
L 378.386846 57.198571 
L 378.459411 60.120738 
L 378.531975 59.589435 
L 378.677105 53.568 
L 378.74967 55.161909 
L 378.822234 54.010753 
L 379.185058 70.392597 
L 379.257623 67.913183 
L 379.330187 68.090284 
L 379.402752 68.090284 
L 379.620446 69.15289 
L 379.693011 73.226214 
L 379.765576 72.163608 
L 379.83814 71.809406 
L 379.910705 73.049113 
L 379.98327 78.893447 
L 380.055835 74.820123 
L 380.128399 77.122436 
L 380.346093 74.37737 
L 380.418658 77.653739 
L 380.491223 77.388088 
L 380.563788 76.945335 
L 380.636352 74.28882 
L 380.708917 74.643022 
L 380.781482 80.044603 
L 380.854046 78.716346 
L 380.926611 79.42475 
L 380.999176 78.716346 
L 381.071741 85.446184 
L 381.144305 81.904164 
L 381.21687 82.612568 
L 381.289435 84.560679 
L 381.361999 80.310255 
L 381.507129 84.73778 
L 381.579694 84.029376 
L 381.652258 85.269083 
L 382.015082 76.05983 
L 382.087647 77.83084 
L 382.160211 76.768234 
L 382.377905 81.107209 
L 382.45047 78.362143 
L 382.740729 86.685892 
L 382.813294 85.534735 
L 382.958423 88.1027 
L 383.103553 82.612568 
L 383.176117 84.64923 
L 383.321247 85.091982 
L 383.538941 78.804896 
L 383.611506 75.705628 
L 383.68407 77.83084 
L 383.756635 77.74229 
L 383.901765 75.351426 
L 384.264588 73.403315 
L 384.409718 78.273593 
L 384.554847 75.351426 
L 384.772541 78.804896 
L 384.845106 75.174325 
L 384.917671 78.716346 
L 385.0628 70.9239 
L 385.280494 78.716346 
L 385.353059 76.325482 
L 385.425624 79.778952 
L 385.498188 78.362143 
L 385.570753 74.820123 
L 385.643318 75.528527 
L 385.715882 82.081265 
L 385.788447 79.247649 
L 385.861012 77.122436 
L 386.006141 80.221704 
L 386.078706 75.174325 
L 386.151271 76.679684 
L 386.223835 76.591133 
L 386.2964 78.185042 
L 386.44153 73.049113 
L 386.586659 73.580416 
L 386.731789 80.310255 
L 386.804353 80.133154 
L 386.876918 76.945335 
L 386.949483 77.210987 
L 387.022047 78.362143 
L 387.094612 75.882729 
L 387.239742 80.310255 
L 387.384871 79.159098 
L 387.602565 82.258366 
L 387.67513 82.96677 
L 387.747695 82.435467 
L 387.820259 83.498073 
L 387.965389 80.133154 
L 388.183083 77.122436 
L 388.400777 79.601851 
L 388.691036 70.746799 
L 388.763601 74.28882 
L 388.836165 68.887239 
L 388.90873 69.684193 
L 389.053859 67.293329 
L 389.344118 75.882729 
L 389.489248 70.83535 
L 389.561812 70.9239 
L 389.634377 71.632305 
L 389.779507 68.798688 
L 389.852071 73.757517 
L 389.924636 71.101001 
L 390.14233 76.236931 
L 390.214895 73.580416 
L 390.28746 76.236931 
L 390.360024 71.455204 
L 390.432589 72.163608 
L 390.577719 68.267385 
L 390.650283 68.621587 
L 390.722848 70.392597 
L 390.867977 67.204779 
L 390.940542 67.558981 
L 391.230801 57.641324 
L 391.448495 61.006243 
L 391.593625 62.600152 
L 391.666189 61.714647 
L 392.029013 70.215496 
L 392.174142 66.673476 
L 392.391836 74.820123 
L 392.464401 74.997224 
L 392.609531 73.226214 
L 392.682095 76.414032 
L 392.75466 73.226214 
L 392.899789 76.414032 
L 392.972354 74.820123 
L 393.335178 81.372861 
L 393.480307 78.007941 
L 393.552872 79.247649 
L 393.625437 79.070548 
L 393.843131 73.757517 
L 393.915696 73.757517 
L 394.205954 69.507092 
L 394.278519 70.83535 
L 394.351084 69.15289 
L 394.496213 71.986507 
L 394.568778 73.049113 
L 394.641343 70.569698 
L 394.713907 71.101001 
L 394.786472 75.528527 
L 394.859037 74.111719 
L 395.076731 70.126946 
L 395.149296 71.101001 
L 395.22186 74.997224 
L 395.294425 73.668966 
L 395.512119 81.372861 
L 395.584684 80.841558 
L 395.802378 77.74229 
L 395.874943 78.185042 
L 395.947508 79.601851 
L 396.165202 75.705628 
L 396.455461 82.258366 
L 396.60059 79.070548 
L 396.673155 82.612568 
L 396.74572 80.930108 
L 396.890849 79.247649 
L 397.035978 82.435467 
L 397.108543 79.601851 
L 397.181108 82.612568 
L 397.253673 81.018659 
L 397.471367 82.96677 
L 397.616496 81.727063 
L 397.83419 78.007941 
L 397.906755 78.981997 
L 397.97932 78.539245 
L 398.051884 84.206477 
L 398.124449 82.789669 
L 398.197014 83.320972 
L 398.487273 80.310255 
L 398.487273 80.310255 
" style="fill:none;stroke:#ffff00;stroke-linecap:square;stroke-width:1.5;"/>
   </g>
   <g id="line2d_12">
    <path clip-path="url(#pb4834ab0fa)" d="M 73.832727 269.985452 
L 74.122986 266.787306 
L 74.195551 267.087173 
L 74.48581 271.252212 
L 74.848633 275.28433 
L 75.211457 279.494673 
L 75.356586 280.345282 
L 75.429151 280.244764 
L 75.646845 280.474096 
L 75.864539 280.341265 
L 76.009669 280.668521 
L 76.372492 281.835595 
L 76.880445 282.367552 
L 77.533528 282.741658 
L 78.259175 282.448391 
L 78.549434 282.491837 
L 78.839693 282.022338 
L 79.710469 280.739594 
L 80.218422 280.37104 
L 80.508681 280.376871 
L 80.79894 280.381262 
L 81.597152 280.228459 
L 82.322799 280.41127 
L 82.685623 280.56465 
L 84.282047 280.594081 
L 85.007694 280.282796 
L 86.676682 279.023047 
L 87.692588 277.430287 
L 88.63593 276.47966 
L 90.087224 275.177916 
L 91.248259 273.775886 
L 92.409295 271.771686 
L 92.989813 270.734205 
L 93.71546 269.528396 
L 94.94906 267.595241 
L 96.400354 266.067953 
L 96.980872 265.52418 
L 99.738331 261.875963 
L 100.899367 260.420399 
L 102.495791 257.75786 
L 102.931179 256.950014 
L 104.382473 253.717243 
L 105.616073 250.100626 
L 106.269156 247.758427 
L 107.575321 242.938994 
L 108.591227 239.401985 
L 109.752262 236.162584 
L 114.033581 226.155258 
L 116.500781 221.390501 
L 118.677723 217.849406 
L 120.056452 216.332789 
L 120.854664 215.970587 
L 121.362617 215.855787 
L 122.596217 215.908446 
L 123.321865 216.18599 
L 124.337771 216.788278 
L 125.135982 217.177658 
L 126.587277 218.164209 
L 128.183701 219.006783 
L 129.780124 220.338179 
L 130.578336 220.785748 
L 132.392454 221.662539 
L 134.78709 223.369318 
L 136.746337 225.491174 
L 140.302008 228.828536 
L 141.24535 229.313563 
L 141.825867 229.563361 
L 142.47895 229.415008 
L 142.914338 229.198157 
L 144.293068 228.51877 
L 145.962056 228.050383 
L 147.050527 227.39487 
L 150.02568 225.754091 
L 151.041587 225.189175 
L 152.855704 224.465356 
L 154.089305 224.405733 
L 154.669822 224.581035 
L 159.749353 227.136444 
L 161.636035 227.918875 
L 162.797071 228.352232 
L 164.683753 228.798505 
L 165.481965 228.857245 
L 166.280177 228.803111 
L 166.715565 228.802153 
L 168.311989 228.950984 
L 170.77919 229.312415 
L 174.334861 230.026861 
L 175.278202 230.060655 
L 178.180791 230.39094 
L 178.688744 230.226719 
L 180.357732 229.745854 
L 181.809027 229.486894 
L 182.897497 229.279534 
L 186.16291 228.63217 
L 186.598298 228.531894 
L 188.702675 228.163056 
L 190.226534 227.582521 
L 191.677828 226.591095 
L 194.290158 224.735728 
L 195.306064 223.938096 
L 195.959147 223.41105 
L 199.297124 220.391387 
L 200.893547 219.355719 
L 202.562536 218.376171 
L 204.521783 216.56191 
L 207.061548 214.442118 
L 209.964137 211.369672 
L 211.70569 209.914457 
L 212.866726 208.874645 
L 213.882632 207.949971 
L 215.914444 206.211766 
L 217.728562 205.081736 
L 220.195762 204.734744 
L 222.300139 203.824181 
L 222.808092 203.779166 
L 223.316045 203.803783 
L 224.404516 204.024814 
L 226.654022 204.867007 
L 230.354823 206.440283 
L 232.531764 206.458989 
L 233.6928 206.351984 
L 234.853835 206.27918 
L 237.321035 206.138977 
L 238.119247 205.954403 
L 239.425412 205.844616 
L 241.38466 205.949617 
L 243.561601 206.456573 
L 244.504942 206.699066 
L 249.221649 207.310106 
L 250.600379 207.161723 
L 253.575532 206.906259 
L 254.301179 206.855637 
L 256.913509 206.437079 
L 258.074545 206.086892 
L 258.655062 205.913755 
L 259.598404 205.581439 
L 260.324051 205.40631 
L 260.977133 205.409289 
L 262.138169 205.418985 
L 262.863816 205.481518 
L 263.879722 205.46404 
L 264.46024 205.374109 
L 266.709746 205.224441 
L 268.088476 205.303562 
L 268.886688 205.325431 
L 269.467205 205.495608 
L 271.353888 206.230122 
L 271.934406 206.228249 
L 273.240571 206.096373 
L 273.748524 206.256144 
L 274.546735 206.622307 
L 276.070595 206.788977 
L 277.086501 206.849435 
L 277.957277 206.72221 
L 282.020901 205.299765 
L 283.68989 205.392445 
L 284.270408 205.404989 
L 284.850925 205.27454 
L 285.794267 205.009521 
L 286.374784 205.024055 
L 286.955302 205.083069 
L 288.043773 205.22634 
L 290.365844 205.102695 
L 291.309185 205.014956 
L 292.325091 204.724161 
L 295.590504 203.646201 
L 302.266458 200.37774 
L 303.137234 199.90298 
L 305.241611 199.270567 
L 306.838035 198.958606 
L 308.289329 199.440195 
L 309.595494 200.128097 
L 310.683965 200.477252 
L 312.643212 200.943409 
L 313.731683 201.079356 
L 314.965283 201.114354 
L 317.940436 200.250947 
L 319.174037 200.107978 
L 319.972249 199.784012 
L 320.625331 199.551209 
L 321.496108 199.473195 
L 323.455355 198.866651 
L 324.471261 198.320552 
L 325.559732 198.14142 
L 329.84105 198.060122 
L 330.711827 198.265681 
L 333.759545 198.790274 
L 334.702886 198.889506 
L 335.501098 199.120901 
L 336.009051 199.310274 
L 337.750604 200.196715 
L 338.621381 200.528338 
L 339.274463 200.862576 
L 339.782416 201.000807 
L 340.14524 201.065256 
L 340.653193 201.322684 
L 341.088581 201.566424 
L 342.031923 201.823006 
L 342.467311 201.852524 
L 342.902699 201.832753 
L 343.99117 201.812386 
L 345.007076 201.534367 
L 346.6035 200.737426 
L 348.054794 199.146917 
L 348.998135 197.896572 
L 350.159171 195.675725 
L 352.553807 190.187534 
L 354.005101 186.710504 
L 356.327172 182.197939 
L 358.649243 177.490554 
L 360.390796 173.877763 
L 361.334137 171.506022 
L 362.204914 169.486323 
L 363.656208 166.1925 
L 364.817244 163.473743 
L 366.268538 159.881751 
L 368.880868 153.835241 
L 370.622421 149.908985 
L 375.266563 138.499373 
L 376.064775 136.116977 
L 377.661199 130.421992 
L 379.475317 123.91613 
L 380.418658 121.389702 
L 381.579694 118.852333 
L 383.901765 114.347682 
L 385.498188 111.140653 
L 386.731789 108.910776 
L 389.198989 104.803537 
L 391.230801 101.113502 
L 392.174142 99.219263 
L 393.044919 98.052108 
L 394.205954 96.683157 
L 395.439555 95.110001 
L 398.487273 92.836145 
L 398.487273 92.836145 
" style="fill:none;stroke:#00ffff;stroke-linecap:square;stroke-width:1.5;"/>
   </g>
   <g id="line2d_13">
    <path clip-path="url(#pb4834ab0fa)" d="M 319.609425 192.238102 
L 319.68199 194.717517 
L 319.754554 189.847239 
L 319.827119 191.175496 
L 319.899684 190.998395 
L 319.972249 190.644193 
L 320.044813 189.935789 
L 320.117378 190.289991 
L 320.189943 191.352597 
L 320.262507 192.415204 
L 320.335072 190.821294 
L 320.407637 192.857956 
L 320.480202 196.311426 
L 320.552766 196.488527 
L 320.625331 198.082436 
L 320.697896 200.207649 
L 320.77046 196.488527 
L 320.843025 198.259537 
L 320.91559 196.665628 
L 320.988155 199.322143 
L 321.060719 197.551133 
L 321.133284 195.603022 
" style="fill:none;stroke:#ff0000;stroke-linecap:square;stroke-width:1.5;"/>
   </g>
   <g id="patch_3">
    <path d="M 57.6 307.584 
L 57.6 41.472 
" style="fill:none;stroke:#000000;stroke-linecap:square;stroke-linejoin:miter;stroke-width:0.8;"/>
   </g>
   <g id="patch_4">
    <path d="M 414.72 307.584 
L 414.72 41.472 
" style="fill:none;stroke:#000000;stroke-linecap:square;stroke-linejoin:miter;stroke-width:0.8;"/>
   </g>
   <g id="patch_5">
    <path d="M 57.6 307.584 
L 414.72 307.584 
" style="fill:none;stroke:#000000;stroke-linecap:square;stroke-linejoin:miter;stroke-width:0.8;"/>
   </g>
   <g id="patch_6">
    <path d="M 57.6 41.472 
L 414.72 41.472 
" style="fill:none;stroke:#000000;stroke-linecap:square;stroke-linejoin:miter;stroke-width:0.8;"/>
   </g>
  </g>
 </g>
 <defs>
  <clipPath id="pb4834ab0fa">
   <rect height="266.112" width="357.12" x="57.6" y="41.472"/>
  </clipPath>
 </defs>
</svg>
