<?xml version="1.0" encoding="utf-8" standalone="no"?>
<!DOCTYPE svg PUBLIC "-//W3C//DTD SVG 1.1//EN"
  "http://www.w3.org/Graphics/SVG/1.1/DTD/svg11.dtd">
<!-- Created with matplotlib (https://matplotlib.org/) -->
<svg height="345.6pt" version="1.1" viewBox="0 0 460.8 345.6" width="460.8pt" xmlns="http://www.w3.org/2000/svg" xmlns:xlink="http://www.w3.org/1999/xlink">
 <defs>
  <style type="text/css">
*{stroke-linecap:butt;stroke-linejoin:round;}
  </style>
 </defs>
 <g id="figure_1">
  <g id="patch_1">
   <path d="M 0 345.6 
L 460.8 345.6 
L 460.8 0 
L 0 0 
z
" style="fill:#ffffff;"/>
  </g>
  <g id="axes_1">
   <g id="patch_2">
    <path d="M 57.6 307.584 
L 414.72 307.584 
L 414.72 41.472 
L 57.6 41.472 
z
" style="fill:#ffffff;"/>
   </g>
   <g id="matplotlib.axis_1">
    <g id="xtick_1">
     <g id="line2d_1">
      <defs>
       <path d="M 0 0 
L 0 3.5 
" id="m5e39726165" style="stroke:#000000;stroke-width:0.8;"/>
      </defs>
      <g>
       <use style="stroke:#000000;stroke-width:0.8;" x="73.760163" xlink:href="#m5e39726165" y="307.584"/>
      </g>
     </g>
     <g id="text_1">
      <!-- 0 -->
      <defs>
       <path d="M 31.78125 66.40625 
Q 24.171875 66.40625 20.328125 58.90625 
Q 16.5 51.421875 16.5 36.375 
Q 16.5 21.390625 20.328125 13.890625 
Q 24.171875 6.390625 31.78125 6.390625 
Q 39.453125 6.390625 43.28125 13.890625 
Q 47.125 21.390625 47.125 36.375 
Q 47.125 51.421875 43.28125 58.90625 
Q 39.453125 66.40625 31.78125 66.40625 
z
M 31.78125 74.21875 
Q 44.046875 74.21875 50.515625 64.515625 
Q 56.984375 54.828125 56.984375 36.375 
Q 56.984375 17.96875 50.515625 8.265625 
Q 44.046875 -1.421875 31.78125 -1.421875 
Q 19.53125 -1.421875 13.0625 8.265625 
Q 6.59375 17.96875 6.59375 36.375 
Q 6.59375 54.828125 13.0625 64.515625 
Q 19.53125 74.21875 31.78125 74.21875 
z
" id="DejaVuSans-48"/>
      </defs>
      <g transform="translate(70.578913 322.182437)scale(0.1 -0.1)">
       <use xlink:href="#DejaVuSans-48"/>
      </g>
     </g>
    </g>
    <g id="xtick_2">
     <g id="line2d_2">
      <g>
       <use style="stroke:#000000;stroke-width:0.8;" x="146.32488" xlink:href="#m5e39726165" y="307.584"/>
      </g>
     </g>
     <g id="text_2">
      <!-- 1000 -->
      <defs>
       <path d="M 12.40625 8.296875 
L 28.515625 8.296875 
L 28.515625 63.921875 
L 10.984375 60.40625 
L 10.984375 69.390625 
L 28.421875 72.90625 
L 38.28125 72.90625 
L 38.28125 8.296875 
L 54.390625 8.296875 
L 54.390625 0 
L 12.40625 0 
z
" id="DejaVuSans-49"/>
      </defs>
      <g transform="translate(133.59988 322.182437)scale(0.1 -0.1)">
       <use xlink:href="#DejaVuSans-49"/>
       <use x="63.623047" xlink:href="#DejaVuSans-48"/>
       <use x="127.246094" xlink:href="#DejaVuSans-48"/>
       <use x="190.869141" xlink:href="#DejaVuSans-48"/>
      </g>
     </g>
    </g>
    <g id="xtick_3">
     <g id="line2d_3">
      <g>
       <use style="stroke:#000000;stroke-width:0.8;" x="218.889597" xlink:href="#m5e39726165" y="307.584"/>
      </g>
     </g>
     <g id="text_3">
      <!-- 2000 -->
      <defs>
       <path d="M 19.1875 8.296875 
L 53.609375 8.296875 
L 53.609375 0 
L 7.328125 0 
L 7.328125 8.296875 
Q 12.9375 14.109375 22.625 23.890625 
Q 32.328125 33.6875 34.8125 36.53125 
Q 39.546875 41.84375 41.421875 45.53125 
Q 43.3125 49.21875 43.3125 52.78125 
Q 43.3125 58.59375 39.234375 62.25 
Q 35.15625 65.921875 28.609375 65.921875 
Q 23.96875 65.921875 18.8125 64.3125 
Q 13.671875 62.703125 7.8125 59.421875 
L 7.8125 69.390625 
Q 13.765625 71.78125 18.9375 73 
Q 24.125 74.21875 28.421875 74.21875 
Q 39.75 74.21875 46.484375 68.546875 
Q 53.21875 62.890625 53.21875 53.421875 
Q 53.21875 48.921875 51.53125 44.890625 
Q 49.859375 40.875 45.40625 35.40625 
Q 44.1875 33.984375 37.640625 27.21875 
Q 31.109375 20.453125 19.1875 8.296875 
z
" id="DejaVuSans-50"/>
      </defs>
      <g transform="translate(206.164597 322.182437)scale(0.1 -0.1)">
       <use xlink:href="#DejaVuSans-50"/>
       <use x="63.623047" xlink:href="#DejaVuSans-48"/>
       <use x="127.246094" xlink:href="#DejaVuSans-48"/>
       <use x="190.869141" xlink:href="#DejaVuSans-48"/>
      </g>
     </g>
    </g>
    <g id="xtick_4">
     <g id="line2d_4">
      <g>
       <use style="stroke:#000000;stroke-width:0.8;" x="291.454315" xlink:href="#m5e39726165" y="307.584"/>
      </g>
     </g>
     <g id="text_4">
      <!-- 3000 -->
      <defs>
       <path d="M 40.578125 39.3125 
Q 47.65625 37.796875 51.625 33 
Q 55.609375 28.21875 55.609375 21.1875 
Q 55.609375 10.40625 48.1875 4.484375 
Q 40.765625 -1.421875 27.09375 -1.421875 
Q 22.515625 -1.421875 17.65625 -0.515625 
Q 12.796875 0.390625 7.625 2.203125 
L 7.625 11.71875 
Q 11.71875 9.328125 16.59375 8.109375 
Q 21.484375 6.890625 26.8125 6.890625 
Q 36.078125 6.890625 40.9375 10.546875 
Q 45.796875 14.203125 45.796875 21.1875 
Q 45.796875 27.640625 41.28125 31.265625 
Q 36.765625 34.90625 28.71875 34.90625 
L 20.21875 34.90625 
L 20.21875 43.015625 
L 29.109375 43.015625 
Q 36.375 43.015625 40.234375 45.921875 
Q 44.09375 48.828125 44.09375 54.296875 
Q 44.09375 59.90625 40.109375 62.90625 
Q 36.140625 65.921875 28.71875 65.921875 
Q 24.65625 65.921875 20.015625 65.03125 
Q 15.375 64.15625 9.8125 62.3125 
L 9.8125 71.09375 
Q 15.4375 72.65625 20.34375 73.4375 
Q 25.25 74.21875 29.59375 74.21875 
Q 40.828125 74.21875 47.359375 69.109375 
Q 53.90625 64.015625 53.90625 55.328125 
Q 53.90625 49.265625 50.4375 45.09375 
Q 46.96875 40.921875 40.578125 39.3125 
z
" id="DejaVuSans-51"/>
      </defs>
      <g transform="translate(278.729315 322.182437)scale(0.1 -0.1)">
       <use xlink:href="#DejaVuSans-51"/>
       <use x="63.623047" xlink:href="#DejaVuSans-48"/>
       <use x="127.246094" xlink:href="#DejaVuSans-48"/>
       <use x="190.869141" xlink:href="#DejaVuSans-48"/>
      </g>
     </g>
    </g>
    <g id="xtick_5">
     <g id="line2d_5">
      <g>
       <use style="stroke:#000000;stroke-width:0.8;" x="364.019032" xlink:href="#m5e39726165" y="307.584"/>
      </g>
     </g>
     <g id="text_5">
      <!-- 4000 -->
      <defs>
       <path d="M 37.796875 64.3125 
L 12.890625 25.390625 
L 37.796875 25.390625 
z
M 35.203125 72.90625 
L 47.609375 72.90625 
L 47.609375 25.390625 
L 58.015625 25.390625 
L 58.015625 17.1875 
L 47.609375 17.1875 
L 47.609375 0 
L 37.796875 0 
L 37.796875 17.1875 
L 4.890625 17.1875 
L 4.890625 26.703125 
z
" id="DejaVuSans-52"/>
      </defs>
      <g transform="translate(351.294032 322.182437)scale(0.1 -0.1)">
       <use xlink:href="#DejaVuSans-52"/>
       <use x="63.623047" xlink:href="#DejaVuSans-48"/>
       <use x="127.246094" xlink:href="#DejaVuSans-48"/>
       <use x="190.869141" xlink:href="#DejaVuSans-48"/>
      </g>
     </g>
    </g>
   </g>
   <g id="matplotlib.axis_2">
    <g id="ytick_1">
     <g id="line2d_6">
      <defs>
       <path d="M 0 0 
L -3.5 0 
" id="md3f282447e" style="stroke:#000000;stroke-width:0.8;"/>
      </defs>
      <g>
       <use style="stroke:#000000;stroke-width:0.8;" x="57.6" xlink:href="#md3f282447e" y="297.901599"/>
      </g>
     </g>
     <g id="text_6">
      <!-- 0.330 -->
      <defs>
       <path d="M 10.6875 12.40625 
L 21 12.40625 
L 21 0 
L 10.6875 0 
z
" id="DejaVuSans-46"/>
      </defs>
      <g transform="translate(21.971875 301.700818)scale(0.1 -0.1)">
       <use xlink:href="#DejaVuSans-48"/>
       <use x="63.623047" xlink:href="#DejaVuSans-46"/>
       <use x="95.410156" xlink:href="#DejaVuSans-51"/>
       <use x="159.033203" xlink:href="#DejaVuSans-51"/>
       <use x="222.65625" xlink:href="#DejaVuSans-48"/>
      </g>
     </g>
    </g>
    <g id="ytick_2">
     <g id="line2d_7">
      <g>
       <use style="stroke:#000000;stroke-width:0.8;" x="57.6" xlink:href="#md3f282447e" y="266.709198"/>
      </g>
     </g>
     <g id="text_7">
      <!-- 0.335 -->
      <defs>
       <path d="M 10.796875 72.90625 
L 49.515625 72.90625 
L 49.515625 64.59375 
L 19.828125 64.59375 
L 19.828125 46.734375 
Q 21.96875 47.46875 24.109375 47.828125 
Q 26.265625 48.1875 28.421875 48.1875 
Q 40.625 48.1875 47.75 41.5 
Q 54.890625 34.8125 54.890625 23.390625 
Q 54.890625 11.625 47.5625 5.09375 
Q 40.234375 -1.421875 26.90625 -1.421875 
Q 22.3125 -1.421875 17.546875 -0.640625 
Q 12.796875 0.140625 7.71875 1.703125 
L 7.71875 11.625 
Q 12.109375 9.234375 16.796875 8.0625 
Q 21.484375 6.890625 26.703125 6.890625 
Q 35.15625 6.890625 40.078125 11.328125 
Q 45.015625 15.765625 45.015625 23.390625 
Q 45.015625 31 40.078125 35.4375 
Q 35.15625 39.890625 26.703125 39.890625 
Q 22.75 39.890625 18.8125 39.015625 
Q 14.890625 38.140625 10.796875 36.28125 
z
" id="DejaVuSans-53"/>
      </defs>
      <g transform="translate(21.971875 270.508417)scale(0.1 -0.1)">
       <use xlink:href="#DejaVuSans-48"/>
       <use x="63.623047" xlink:href="#DejaVuSans-46"/>
       <use x="95.410156" xlink:href="#DejaVuSans-51"/>
       <use x="159.033203" xlink:href="#DejaVuSans-51"/>
       <use x="222.65625" xlink:href="#DejaVuSans-53"/>
      </g>
     </g>
    </g>
    <g id="ytick_3">
     <g id="line2d_8">
      <g>
       <use style="stroke:#000000;stroke-width:0.8;" x="57.6" xlink:href="#md3f282447e" y="235.516797"/>
      </g>
     </g>
     <g id="text_8">
      <!-- 0.340 -->
      <g transform="translate(21.971875 239.316015)scale(0.1 -0.1)">
       <use xlink:href="#DejaVuSans-48"/>
       <use x="63.623047" xlink:href="#DejaVuSans-46"/>
       <use x="95.410156" xlink:href="#DejaVuSans-51"/>
       <use x="159.033203" xlink:href="#DejaVuSans-52"/>
       <use x="222.65625" xlink:href="#DejaVuSans-48"/>
      </g>
     </g>
    </g>
    <g id="ytick_4">
     <g id="line2d_9">
      <g>
       <use style="stroke:#000000;stroke-width:0.8;" x="57.6" xlink:href="#md3f282447e" y="204.324395"/>
      </g>
     </g>
     <g id="text_9">
      <!-- 0.345 -->
      <g transform="translate(21.971875 208.123614)scale(0.1 -0.1)">
       <use xlink:href="#DejaVuSans-48"/>
       <use x="63.623047" xlink:href="#DejaVuSans-46"/>
       <use x="95.410156" xlink:href="#DejaVuSans-51"/>
       <use x="159.033203" xlink:href="#DejaVuSans-52"/>
       <use x="222.65625" xlink:href="#DejaVuSans-53"/>
      </g>
     </g>
    </g>
    <g id="ytick_5">
     <g id="line2d_10">
      <g>
       <use style="stroke:#000000;stroke-width:0.8;" x="57.6" xlink:href="#md3f282447e" y="173.131994"/>
      </g>
     </g>
     <g id="text_10">
      <!-- 0.350 -->
      <g transform="translate(21.971875 176.931213)scale(0.1 -0.1)">
       <use xlink:href="#DejaVuSans-48"/>
       <use x="63.623047" xlink:href="#DejaVuSans-46"/>
       <use x="95.410156" xlink:href="#DejaVuSans-51"/>
       <use x="159.033203" xlink:href="#DejaVuSans-53"/>
       <use x="222.65625" xlink:href="#DejaVuSans-48"/>
      </g>
     </g>
    </g>
    <g id="ytick_6">
     <g id="line2d_11">
      <g>
       <use style="stroke:#000000;stroke-width:0.8;" x="57.6" xlink:href="#md3f282447e" y="141.939593"/>
      </g>
     </g>
     <g id="text_11">
      <!-- 0.355 -->
      <g transform="translate(21.971875 145.738812)scale(0.1 -0.1)">
       <use xlink:href="#DejaVuSans-48"/>
       <use x="63.623047" xlink:href="#DejaVuSans-46"/>
       <use x="95.410156" xlink:href="#DejaVuSans-51"/>
       <use x="159.033203" xlink:href="#DejaVuSans-53"/>
       <use x="222.65625" xlink:href="#DejaVuSans-53"/>
      </g>
     </g>
    </g>
    <g id="ytick_7">
     <g id="line2d_12">
      <g>
       <use style="stroke:#000000;stroke-width:0.8;" x="57.6" xlink:href="#md3f282447e" y="110.747192"/>
      </g>
     </g>
     <g id="text_12">
      <!-- 0.360 -->
      <defs>
       <path d="M 33.015625 40.375 
Q 26.375 40.375 22.484375 35.828125 
Q 18.609375 31.296875 18.609375 23.390625 
Q 18.609375 15.53125 22.484375 10.953125 
Q 26.375 6.390625 33.015625 6.390625 
Q 39.65625 6.390625 43.53125 10.953125 
Q 47.40625 15.53125 47.40625 23.390625 
Q 47.40625 31.296875 43.53125 35.828125 
Q 39.65625 40.375 33.015625 40.375 
z
M 52.59375 71.296875 
L 52.59375 62.3125 
Q 48.875 64.0625 45.09375 64.984375 
Q 41.3125 65.921875 37.59375 65.921875 
Q 27.828125 65.921875 22.671875 59.328125 
Q 17.53125 52.734375 16.796875 39.40625 
Q 19.671875 43.65625 24.015625 45.921875 
Q 28.375 48.1875 33.59375 48.1875 
Q 44.578125 48.1875 50.953125 41.515625 
Q 57.328125 34.859375 57.328125 23.390625 
Q 57.328125 12.15625 50.6875 5.359375 
Q 44.046875 -1.421875 33.015625 -1.421875 
Q 20.359375 -1.421875 13.671875 8.265625 
Q 6.984375 17.96875 6.984375 36.375 
Q 6.984375 53.65625 15.1875 63.9375 
Q 23.390625 74.21875 37.203125 74.21875 
Q 40.921875 74.21875 44.703125 73.484375 
Q 48.484375 72.75 52.59375 71.296875 
z
" id="DejaVuSans-54"/>
      </defs>
      <g transform="translate(21.971875 114.546411)scale(0.1 -0.1)">
       <use xlink:href="#DejaVuSans-48"/>
       <use x="63.623047" xlink:href="#DejaVuSans-46"/>
       <use x="95.410156" xlink:href="#DejaVuSans-51"/>
       <use x="159.033203" xlink:href="#DejaVuSans-54"/>
       <use x="222.65625" xlink:href="#DejaVuSans-48"/>
      </g>
     </g>
    </g>
    <g id="ytick_8">
     <g id="line2d_13">
      <g>
       <use style="stroke:#000000;stroke-width:0.8;" x="57.6" xlink:href="#md3f282447e" y="79.554791"/>
      </g>
     </g>
     <g id="text_13">
      <!-- 0.365 -->
      <g transform="translate(21.971875 83.354009)scale(0.1 -0.1)">
       <use xlink:href="#DejaVuSans-48"/>
       <use x="63.623047" xlink:href="#DejaVuSans-46"/>
       <use x="95.410156" xlink:href="#DejaVuSans-51"/>
       <use x="159.033203" xlink:href="#DejaVuSans-54"/>
       <use x="222.65625" xlink:href="#DejaVuSans-53"/>
      </g>
     </g>
    </g>
    <g id="ytick_9">
     <g id="line2d_14">
      <g>
       <use style="stroke:#000000;stroke-width:0.8;" x="57.6" xlink:href="#md3f282447e" y="48.36239"/>
      </g>
     </g>
     <g id="text_14">
      <!-- 0.370 -->
      <defs>
       <path d="M 8.203125 72.90625 
L 55.078125 72.90625 
L 55.078125 68.703125 
L 28.609375 0 
L 18.3125 0 
L 43.21875 64.59375 
L 8.203125 64.59375 
z
" id="DejaVuSans-55"/>
      </defs>
      <g transform="translate(21.971875 52.161608)scale(0.1 -0.1)">
       <use xlink:href="#DejaVuSans-48"/>
       <use x="63.623047" xlink:href="#DejaVuSans-46"/>
       <use x="95.410156" xlink:href="#DejaVuSans-51"/>
       <use x="159.033203" xlink:href="#DejaVuSans-55"/>
       <use x="222.65625" xlink:href="#DejaVuSans-48"/>
      </g>
     </g>
    </g>
   </g>
   <g id="line2d_15">
    <path clip-path="url(#p7e6264b3b6)" d="M 73.832727 279.13742 
L 73.977857 277.23327 
L 74.050421 275.419658 
L 74.122986 275.443963 
L 74.195551 275.901816 
L 74.48581 281.689324 
L 74.848633 287.802323 
L 75.138892 293.027834 
L 75.356586 295.409944 
L 75.57428 294.19822 
L 75.71941 293.442746 
L 75.864539 292.604476 
L 75.937104 292.704899 
L 76.445057 295.488 
L 76.662751 294.979402 
L 76.735316 295.123003 
L 76.880445 295.39117 
L 76.95301 295.310883 
L 77.243269 294.787426 
L 77.315834 294.856793 
L 77.460963 295.053396 
L 77.533528 294.969536 
L 77.896351 293.152608 
L 78.041481 293.319161 
L 78.259175 292.496307 
L 78.476869 293.071247 
L 78.694563 291.549121 
L 79.057387 288.698911 
L 79.202516 288.274833 
L 79.492775 286.653634 
L 79.855599 285.334428 
L 80.073293 286.031659 
L 80.145858 285.991538 
L 80.218422 285.918971 
L 80.436117 286.933742 
L 80.726375 288.863744 
L 80.871505 288.314128 
L 80.94407 288.292347 
L 81.016634 288.12758 
L 81.089199 288.223294 
L 81.452023 288.798495 
L 81.669717 289.040206 
L 81.814846 289.159705 
L 81.959976 289.058937 
L 82.03254 289.029684 
L 82.395364 291.742847 
L 82.467929 291.775289 
L 82.613058 292.186063 
L 82.903317 291.82748 
L 83.266141 291.331751 
L 83.556399 291.976398 
L 83.701529 291.78515 
L 83.846658 292.344369 
L 83.919223 292.228864 
L 83.991788 292.033701 
L 84.354611 289.828539 
L 84.64487 288.936086 
L 84.717435 289.108916 
L 85.443082 285.625318 
L 85.660776 285.390478 
L 85.87847 285.401935 
L 86.386423 283.303748 
L 86.821812 280.010338 
L 87.402329 274.642625 
L 87.474894 274.85312 
L 87.620024 274.80705 
L 87.765153 274.716237 
L 88.127977 275.728349 
L 88.273106 275.590854 
L 88.418235 275.372101 
L 88.4908 275.331804 
L 88.781059 275.644927 
L 89.071318 274.866378 
L 89.289012 275.18151 
L 89.506706 275.519812 
L 89.796965 275.877948 
L 90.304918 274.665013 
L 90.595177 273.713264 
L 91.030565 271.776523 
L 91.393389 268.095547 
L 91.828777 264.644731 
L 92.119036 263.394832 
L 92.264165 262.765882 
L 92.33673 262.838273 
L 92.48186 262.824882 
L 92.626989 262.218163 
L 93.207507 258.771913 
L 93.352636 258.76746 
L 93.497766 258.558322 
L 93.57033 258.632535 
L 93.642895 258.880997 
L 93.71546 258.851952 
L 94.223413 257.26575 
L 94.295978 257.553724 
L 94.368542 257.351912 
L 94.513672 257.45439 
L 94.586236 257.470553 
L 94.658801 257.648363 
L 94.803931 257.330542 
L 94.94906 257.567273 
L 95.457013 259.510172 
L 95.529578 259.584391 
L 95.674707 259.992908 
L 95.747272 260.057415 
L 95.819837 259.843803 
L 95.892401 259.958775 
L 96.18266 260.663402 
L 96.400354 260.982707 
L 96.545484 261.399175 
L 96.618049 261.366016 
L 96.690613 261.553596 
L 96.763178 261.469467 
L 96.908307 261.431978 
L 97.053437 260.502041 
L 97.633955 256.382847 
L 97.779084 256.091696 
L 97.851649 256.128849 
L 97.924213 256.135267 
L 98.432166 253.867737 
L 98.649861 252.777464 
L 98.722425 252.967073 
L 98.940119 252.512817 
L 99.012684 252.546313 
L 99.230378 252.926971 
L 99.302943 252.848497 
L 99.520637 253.409496 
L 99.593202 253.366659 
L 99.810896 253.859377 
L 100.02859 253.723148 
L 100.101155 253.550715 
L 100.391414 252.249354 
L 100.609108 253.080997 
L 101.770143 243.9812 
L 101.987838 242.723692 
L 102.060402 242.782898 
L 102.278096 242.602822 
L 102.568355 242.964104 
L 103.003744 239.168547 
L 103.221438 237.887101 
L 103.366567 237.281667 
L 103.87452 233.144478 
L 103.947085 232.937427 
L 104.237344 229.733689 
L 105.035556 218.636849 
L 105.470944 216.541833 
L 105.906332 210.508006 
L 106.849674 194.83485 
L 106.922238 194.341747 
L 106.994803 194.493953 
L 107.357627 196.283342 
L 107.430191 196.223437 
L 107.575321 195.343988 
L 107.86558 192.881343 
L 108.010709 192.144515 
L 108.083274 191.635658 
L 108.155839 191.664821 
L 108.300968 191.891215 
L 108.446097 192.305777 
L 108.518662 192.107933 
L 108.881486 193.327432 
L 109.09918 194.847678 
L 109.171745 194.915437 
L 109.316874 195.337859 
L 109.389439 195.304539 
L 109.534568 195.652059 
L 110.187651 199.33774 
L 110.260215 199.594354 
L 110.33278 199.518288 
L 110.695604 198.095118 
L 110.913298 198.045133 
L 111.130992 197.176602 
L 111.348686 197.960196 
L 111.638945 200.118228 
L 111.784074 200.343689 
L 111.929204 199.759809 
L 112.074333 199.24429 
L 112.146898 199.283156 
L 112.437157 198.229764 
L 112.79998 196.562769 
L 113.162804 195.466498 
L 113.235369 195.638508 
L 113.380498 196.300167 
L 113.670757 195.339722 
L 113.743322 195.378752 
L 113.961016 194.723007 
L 114.033581 194.766376 
L 114.17871 195.044883 
L 114.251275 194.912543 
L 114.32384 195.046651 
L 114.614098 196.254811 
L 114.759228 196.653571 
L 115.194616 194.845964 
L 115.55744 194.204673 
L 115.630004 194.11609 
L 115.920263 193.391714 
L 116.500781 196.500149 
L 116.573346 196.483056 
L 116.645911 196.576383 
L 117.226428 195.772385 
L 117.371558 195.946103 
L 117.589252 196.431917 
L 117.806946 196.142561 
L 117.879511 196.159525 
L 118.097205 195.465816 
L 118.16977 195.656022 
L 118.314899 195.405326 
L 118.387464 195.419976 
L 118.750287 197.082698 
L 119.25824 199.86988 
L 119.40337 200.153775 
L 119.548499 200.462582 
L 119.766193 200.406976 
L 119.983888 201.465291 
L 120.346711 205.468079 
L 120.63697 208.231264 
L 120.927229 209.896622 
L 121.290052 212.790485 
L 122.0157 218.600873 
L 122.305958 218.748742 
L 123.10417 223.378419 
L 123.684688 229.210703 
L 123.902382 230.364886 
L 124.047512 230.911626 
L 124.337771 230.228812 
L 124.4829 229.840118 
L 124.628029 229.056554 
L 124.700594 229.093775 
L 124.845724 229.403131 
L 125.426241 233.428504 
L 125.571371 234.303624 
L 126.006759 234.590152 
L 126.151888 234.872049 
L 126.442147 234.665692 
L 126.804971 233.439433 
L 126.9501 232.877573 
L 127.167795 231.913228 
L 127.240359 231.678385 
L 127.312924 231.719752 
L 127.458053 231.895085 
L 127.530618 231.607574 
L 127.603183 231.691949 
L 127.893442 233.342824 
L 128.111136 235.304434 
L 128.256265 236.22088 
L 128.546524 238.240604 
L 128.619089 238.436664 
L 128.981912 240.352861 
L 129.127042 240.64101 
L 129.199607 240.554064 
L 129.344736 240.071809 
L 129.634995 238.65564 
L 129.852689 239.097967 
L 130.215513 237.704138 
L 130.288077 237.733708 
L 130.360642 237.887384 
L 130.650901 237.028314 
L 130.94116 236.943102 
L 131.594242 235.725533 
L 131.739372 235.67368 
L 131.811936 235.51586 
L 131.884501 235.554389 
L 132.247325 235.930065 
L 132.319889 235.947277 
L 132.610148 237.229223 
L 132.682713 237.539736 
L 132.755278 237.24046 
L 132.827842 237.296059 
L 132.900407 237.291967 
L 133.045537 236.99567 
L 133.626054 239.083511 
L 133.988878 240.631766 
L 134.061443 240.491305 
L 134.279137 240.969938 
L 134.496831 241.331213 
L 135.077349 245.167449 
L 135.222478 245.460297 
L 135.295043 245.349533 
L 135.367608 245.448767 
L 136.02069 250.478204 
L 136.093255 250.415365 
L 136.165819 250.431037 
L 136.238384 250.644666 
L 136.310949 250.547841 
L 136.528643 250.664747 
L 136.818902 250.384118 
L 136.964031 250.685138 
L 137.036596 250.53913 
L 137.181726 251.113795 
L 137.25429 251.081082 
L 137.471984 250.907331 
L 137.689679 251.513392 
L 137.762243 251.261305 
L 137.834808 251.359597 
L 138.125067 251.280461 
L 138.48789 251.12617 
L 138.63302 251.239478 
L 139.286102 253.020629 
L 139.358667 253.023894 
L 139.939185 250.938096 
L 140.664832 247.335649 
L 141.027656 246.291114 
L 141.10022 246.391332 
L 141.463044 245.750438 
L 141.535609 245.720832 
L 141.753303 245.239467 
L 143.494856 226.891794 
L 143.71255 226.182208 
L 143.930244 226.477239 
L 144.220503 227.013171 
L 144.510762 228.291275 
L 144.801021 229.360107 
L 145.09128 229.441566 
L 145.163844 229.278934 
L 145.236409 229.367503 
L 145.308974 229.366044 
L 145.454103 229.284096 
L 145.671797 229.332818 
L 145.816927 228.683589 
L 146.397445 224.8806 
L 146.542574 224.811087 
L 146.760268 223.843268 
L 146.905398 223.17752 
L 147.123092 223.53622 
L 147.55848 223.235906 
L 147.70361 223.235945 
L 147.776174 223.156635 
L 147.921304 223.39986 
L 148.138998 224.193389 
L 148.284127 224.00333 
L 148.429257 223.507563 
L 148.501821 223.529307 
L 148.574386 223.512717 
L 148.719516 222.801164 
L 148.93721 221.620647 
L 149.009774 221.53199 
L 149.227469 221.938385 
L 149.300033 221.74694 
L 149.372598 221.827572 
L 149.445163 221.936788 
L 149.517727 221.872418 
L 149.880551 221.227131 
L 150.098245 220.205544 
L 150.243375 219.997229 
L 150.388504 219.624664 
L 150.751328 220.726379 
L 151.114151 220.873384 
L 151.259281 221.167738 
L 151.54954 221.182009 
L 151.622104 221.180456 
L 151.984928 222.009703 
L 152.057493 221.865861 
L 152.275187 221.529732 
L 152.565446 222.383584 
L 153.218528 225.584147 
L 153.291093 225.535044 
L 153.508787 225.946802 
L 153.799046 227.976687 
L 154.089305 228.511774 
L 154.379564 230.716393 
L 155.758293 239.67191 
L 155.903423 239.820245 
L 155.975987 239.748006 
L 156.048552 239.673581 
L 156.266246 240.414958 
L 156.338811 240.385804 
L 156.411376 240.39569 
L 156.62907 241.04724 
L 156.846764 241.692758 
L 157.064458 241.585124 
L 157.427282 242.587811 
L 157.572411 242.846976 
L 157.644976 242.776585 
L 157.935235 242.281342 
L 158.298058 240.746365 
L 158.370623 240.821636 
L 158.588317 241.286852 
L 158.806011 241.218384 
L 158.951141 241.2934 
L 159.023705 241.49789 
L 159.09627 241.374666 
L 159.2414 241.035384 
L 159.386529 241.181156 
L 159.749353 241.302018 
L 159.967047 240.865029 
L 160.184741 240.205573 
L 160.402435 240.62021 
L 160.475 240.517113 
L 160.547565 240.695811 
L 160.620129 240.639909 
L 160.765259 240.785327 
L 160.910388 240.47352 
L 160.982953 240.565711 
L 161.055518 240.377146 
L 161.490906 242.460881 
L 161.563471 242.563248 
L 161.636035 242.492681 
L 161.7086 242.555757 
L 161.853729 242.262538 
L 162.143988 242.670151 
L 162.216553 242.589402 
L 162.289118 242.57074 
L 162.506812 241.873039 
L 162.9422 241.042422 
L 163.377588 240.849729 
L 163.450153 241.10554 
L 163.522718 241.065011 
L 163.595283 241.109936 
L 164.030671 240.243557 
L 164.1758 239.877638 
L 164.32093 239.478374 
L 164.538624 238.714834 
L 164.756318 237.912303 
L 165.191706 236.765067 
L 165.264271 236.847809 
L 165.409401 237.304255 
L 165.481965 237.28125 
L 165.627095 236.922142 
L 165.917354 235.422612 
L 166.280177 234.77006 
L 166.425307 234.339812 
L 166.497871 234.327159 
L 166.78813 234.974113 
L 166.93326 235.082315 
L 167.005824 235.035212 
L 167.296083 235.474238 
L 167.368648 235.262886 
L 167.441213 235.307375 
L 167.513777 235.383891 
L 167.586342 235.308066 
L 167.658907 235.330121 
L 167.876601 236.027298 
L 168.16686 237.192265 
L 168.239425 237.143663 
L 168.384554 237.128977 
L 168.457119 236.986678 
L 168.747378 237.56748 
L 168.819942 237.564736 
L 168.965072 237.444309 
L 169.690719 238.515306 
L 169.763284 238.431358 
L 169.908413 238.141633 
L 170.053542 237.584139 
L 170.126107 237.625137 
L 170.343801 237.069119 
L 170.416366 237.159167 
L 170.77919 238.325068 
L 170.851754 238.476819 
L 170.924319 238.414669 
L 171.142013 238.467148 
L 171.504837 238.141059 
L 171.86766 238.583679 
L 172.01279 238.600465 
L 172.085355 238.825712 
L 172.157919 238.675939 
L 172.520743 239.986484 
L 172.593308 240.016269 
L 172.956131 240.704713 
L 173.028696 240.521041 
L 173.101261 240.708431 
L 173.173825 240.615064 
L 173.536649 240.626457 
L 173.609214 240.831005 
L 173.681778 240.635305 
L 173.899473 240.98408 
L 174.262296 239.389172 
L 174.47999 238.398439 
L 174.62512 238.547257 
L 174.770249 238.521435 
L 175.060508 237.61954 
L 175.133073 237.684365 
L 175.278202 237.357465 
L 175.350767 237.528843 
L 175.423332 237.520712 
L 175.568461 237.35733 
L 175.71359 237.761495 
L 176.076414 238.705058 
L 176.148979 238.675566 
L 176.729496 238.982571 
L 177.455144 240.487144 
L 177.527708 240.578037 
L 177.745403 239.217464 
L 179.051567 231.856618 
L 179.269262 231.78301 
L 179.55952 231.162451 
L 180.067473 230.8109 
L 180.212603 230.894238 
L 180.720556 231.869058 
L 180.865685 232.217186 
L 181.228509 231.763627 
L 181.373638 231.899485 
L 181.446203 231.702215 
L 181.518768 231.777576 
L 181.736462 232.149126 
L 181.809027 232.018739 
L 181.881591 232.190878 
L 182.462109 231.292485 
L 182.534674 231.361539 
L 182.752368 232.022601 
L 182.824933 231.886132 
L 182.897497 231.980241 
L 182.970062 231.99286 
L 183.042627 231.750433 
L 183.115192 231.784939 
L 183.478015 232.654802 
L 183.623145 232.692889 
L 183.695709 232.601373 
L 184.058533 232.998719 
L 184.276227 232.603952 
L 184.348792 232.647829 
L 184.493921 232.552488 
L 184.639051 232.781819 
L 184.711615 232.709031 
L 185.001874 231.588499 
L 185.292133 231.367117 
L 185.437263 231.327968 
L 185.582392 230.749378 
L 186.308039 228.82692 
L 186.380604 228.985736 
L 186.670863 230.061912 
L 186.743427 230.003385 
L 187.033686 230.705492 
L 187.178816 231.003083 
L 187.251381 230.999974 
L 187.614204 231.900717 
L 187.831898 232.224273 
L 188.702675 229.793485 
L 189.138063 229.07068 
L 189.210628 229.015897 
L 189.500887 228.449722 
L 189.573451 228.435946 
L 190.081404 226.691585 
L 190.299099 225.196988 
L 190.589357 223.195825 
L 191.169875 221.325002 
L 191.315005 221.084567 
L 191.387569 220.865647 
L 191.460134 221.01208 
L 191.605264 220.593562 
L 191.677828 220.693381 
L 191.750393 220.584244 
L 191.822958 220.666819 
L 191.968087 220.476709 
L 192.185781 220.844767 
L 192.330911 221.045019 
L 192.403475 220.784536 
L 192.47604 220.829904 
L 192.548605 220.943477 
L 192.911428 219.797396 
L 193.056558 219.185652 
L 193.274252 218.29353 
L 193.70964 217.396452 
L 193.782205 217.383728 
L 193.85477 217.517269 
L 194.145029 216.340485 
L 194.870676 214.594999 
L 194.943241 214.577103 
L 195.451194 215.633819 
L 195.523758 215.734569 
L 195.959147 214.02984 
L 196.249405 212.277626 
L 196.684794 210.06348 
L 196.975053 209.304285 
L 197.120182 209.470159 
L 197.337876 209.188307 
L 197.7007 209.423522 
L 197.845829 210.149708 
L 197.918394 210.083748 
L 198.063523 210.07714 
L 198.208653 210.28672 
L 198.281218 210.280239 
L 198.426347 209.869307 
L 198.498912 209.984172 
L 198.9343 210.770197 
L 199.587382 210.851433 
L 199.805077 210.344743 
L 199.877641 210.38713 
L 200.31303 211.628167 
L 201.038677 213.601256 
L 201.111242 213.768661 
L 201.328936 214.772956 
L 201.474065 214.9777 
L 201.764324 214.890639 
L 201.836889 214.97151 
L 201.982018 214.836312 
L 202.925359 208.300558 
L 203.941265 204.560556 
L 204.231524 205.428967 
L 204.376654 205.2652 
L 204.594348 205.562382 
L 204.812042 205.325594 
L 205.029736 204.938314 
L 205.174866 204.730588 
L 205.24743 204.673046 
L 205.537689 205.197172 
L 205.827948 205.238628 
L 206.263336 205.848619 
L 206.335901 205.720862 
L 206.698725 204.506639 
L 208.440278 196.294541 
L 208.657972 195.967426 
L 208.803102 196.067772 
L 209.311055 197.489928 
L 209.383619 197.396703 
L 209.528749 197.508882 
L 209.673878 197.370611 
L 209.964137 198.629597 
L 210.181831 199.160047 
L 210.326961 199.150068 
L 210.544655 199.169857 
L 211.052608 200.110096 
L 212.141079 197.124359 
L 212.286208 196.940577 
L 212.431337 196.711563 
L 212.576467 196.694618 
L 212.721596 196.891853 
L 212.866726 197.172459 
L 213.08442 197.385752 
L 213.156985 197.338712 
L 213.229549 197.132966 
L 213.302114 197.218791 
L 213.374679 197.133257 
L 213.882632 195.105754 
L 213.955196 195.040144 
L 214.245455 195.457285 
L 214.390585 194.791074 
L 214.680844 193.273321 
L 214.753408 193.364097 
L 215.043667 192.835837 
L 215.188797 193.31691 
L 215.479056 195.118065 
L 215.624185 195.206283 
L 215.987009 196.132909 
L 216.059573 196.13266 
L 216.132138 196.440675 
L 216.204703 196.420181 
L 216.277267 196.519495 
L 216.640091 195.791702 
L 217.075479 195.788561 
L 217.220609 196.148433 
L 217.873691 200.643969 
L 218.236515 203.431723 
L 219.034727 206.831404 
L 219.179856 206.947682 
L 219.324986 207.285054 
L 219.615244 206.661931 
L 219.832939 206.0059 
L 219.978068 205.732293 
L 220.77628 201.591317 
L 220.848845 201.651436 
L 221.139104 200.941195 
L 221.429362 200.698828 
L 221.574492 200.782701 
L 221.719621 200.636368 
L 221.864751 200.659045 
L 222.00988 200.276982 
L 222.227574 200.332009 
L 222.590398 201.556994 
L 222.735527 202.927096 
L 223.025786 205.173987 
L 223.098351 205.255534 
L 223.533739 207.451845 
L 223.678869 207.623073 
L 224.331951 210.847636 
L 225.057598 213.039493 
L 225.638116 214.118936 
L 225.783245 214.59601 
L 226.218634 216.472686 
L 226.291198 216.493544 
L 226.363763 216.331098 
L 226.581457 216.557447 
L 226.944281 216.608632 
L 227.23454 216.214649 
L 227.597363 217.82451 
L 227.887622 218.508503 
L 228.323011 220.236127 
L 228.395575 220.315592 
L 228.540705 219.985862 
L 228.685834 220.311273 
L 228.758399 220.166 
L 228.830964 220.143354 
L 229.338917 218.903277 
L 229.411481 218.964626 
L 229.556611 218.959404 
L 229.70174 219.182639 
L 229.774305 219.126724 
L 230.645081 215.083045 
L 230.717646 215.163723 
L 231.007905 214.571569 
L 231.878682 211.374311 
L 231.951246 211.409303 
L 232.096376 211.269726 
L 232.967152 208.807792 
L 233.039717 208.942161 
L 233.54767 209.501446 
L 233.6928 209.66091 
L 233.910494 209.408853 
L 233.983058 209.340924 
L 234.200753 208.923074 
L 234.273317 208.883278 
L 234.345882 208.992326 
L 234.491012 208.876331 
L 234.78127 209.804791 
L 234.9264 210.029241 
L 234.998965 210.001952 
L 235.071529 210.11325 
L 235.361788 211.318995 
L 235.506918 211.246311 
L 235.652047 211.230846 
L 235.869741 210.689332 
L 235.942306 210.698902 
L 236.450259 209.99458 
L 236.522824 209.99779 
L 236.958212 209.166697 
L 237.321035 208.067228 
L 237.3936 208.127072 
L 237.53873 207.616317 
L 237.828988 206.623591 
L 237.901553 206.585213 
L 238.046683 206.757375 
L 238.191812 206.69972 
L 238.264377 206.708486 
L 238.482071 207.291594 
L 238.6272 207.636084 
L 239.135153 208.225694 
L 239.207718 208.089129 
L 239.715671 208.916999 
L 239.933365 209.516635 
L 240.296189 210.115959 
L 240.441318 210.06379 
L 240.586448 210.417392 
L 240.659012 210.344071 
L 240.731577 210.495313 
L 240.804142 210.396438 
L 240.949271 210.522194 
L 241.38466 211.614985 
L 241.965177 213.109091 
L 242.255436 213.303729 
L 242.545695 212.408513 
L 242.763389 212.22521 
L 242.981083 211.89181 
L 243.126213 213.057826 
L 243.634166 217.437086 
L 243.706731 217.502085 
L 243.85186 217.343851 
L 243.924425 217.336136 
L 243.996989 217.16597 
L 244.069554 217.247723 
L 244.142119 217.412349 
L 244.795201 215.456966 
L 245.158025 215.873611 
L 245.23059 215.80647 
L 245.375719 215.318629 
L 245.956237 213.102974 
L 246.028802 213.136518 
L 246.391625 213.319744 
L 246.536755 212.991175 
L 246.609319 213.035366 
L 246.754449 212.996688 
L 247.69779 216.255916 
L 247.770355 216.297418 
L 247.915484 215.955798 
L 248.205743 216.201821 
L 248.350873 215.816672 
L 248.713696 214.573292 
L 248.93139 214.018591 
L 249.366779 211.323121 
L 249.584473 210.963682 
L 249.729602 210.713696 
L 249.802167 210.720946 
L 249.947296 210.422609 
L 250.019861 210.638898 
L 250.16499 210.031664 
L 250.31012 210.076811 
L 250.527814 209.849377 
L 250.672943 209.842113 
L 250.890638 209.906639 
L 250.963202 209.537457 
L 251.035767 209.620466 
L 251.54372 209.133718 
L 251.906544 207.750615 
L 251.979108 207.80435 
L 252.124238 207.467836 
L 252.559626 209.37429 
L 252.632191 209.400311 
L 252.704756 209.296932 
L 252.849885 209.878579 
L 252.92245 209.657124 
L 252.995014 209.710604 
L 253.140144 209.582597 
L 253.285273 210.017447 
L 253.502967 211.406513 
L 253.648097 211.689221 
L 253.793226 211.438858 
L 253.865791 211.558362 
L 254.446309 210.205849 
L 254.736568 210.109458 
L 254.809132 210.156122 
L 254.954262 211.000664 
L 255.026827 210.962451 
L 255.244521 210.384206 
L 255.38965 210.388712 
L 255.679909 209.548885 
L 255.752474 209.612673 
L 255.825038 209.579728 
L 256.332991 208.124759 
L 256.405556 208.03407 
L 256.986074 205.697675 
L 257.131203 205.761456 
L 257.203768 205.950239 
L 257.276333 205.921594 
L 257.494027 205.503837 
L 257.639156 205.35239 
L 257.85685 204.738133 
L 257.929415 204.824926 
L 258.00198 205.139166 
L 258.074545 204.897658 
L 258.147109 205.204971 
L 258.219674 205.156645 
L 258.582498 204.519948 
L 258.655062 204.636587 
L 258.872757 204.968367 
L 258.945321 204.906311 
L 259.670968 203.202804 
L 259.743533 203.073185 
L 259.816098 203.119095 
L 259.961227 203.285421 
L 260.46918 205.8789 
L 260.686874 207.036952 
L 260.977133 207.614934 
L 261.049698 207.681591 
L 261.412522 208.731593 
L 261.702781 207.876542 
L 261.775345 208.03614 
L 262.210734 210.29639 
L 262.283298 210.270856 
L 262.573557 210.979171 
L 262.791251 210.918402 
L 262.936381 210.347237 
L 263.154075 210.916965 
L 263.371769 210.441094 
L 263.734593 209.635472 
L 263.807157 209.654751 
L 264.169981 208.836132 
L 264.532804 207.781209 
L 264.823063 208.244287 
L 264.895628 208.142215 
L 265.040758 208.050059 
L 265.185887 207.897778 
L 265.548711 207.85827 
L 265.621275 207.992411 
L 265.69384 207.896195 
L 265.766405 207.954197 
L 266.056664 208.741992 
L 266.419487 208.030913 
L 266.637181 208.144104 
L 267.362828 210.264968 
L 267.435393 210.478139 
L 267.507958 210.362768 
L 268.088476 209.982856 
L 268.233605 209.703579 
L 268.451299 210.047478 
L 268.523864 210.408285 
L 268.596429 210.22704 
L 268.668993 210.135583 
L 268.741558 210.197891 
L 268.814123 210.254264 
L 268.886688 210.087688 
L 269.104382 210.764842 
L 269.394641 212.744285 
L 270.047723 216.852418 
L 270.410547 217.937357 
L 270.483111 217.873118 
L 270.628241 217.780542 
L 270.700805 217.912555 
L 270.845935 217.350035 
L 271.063629 216.995786 
L 271.136194 217.048418 
L 272.00697 212.344345 
L 272.297229 209.69436 
L 272.877747 208.102751 
L 273.095441 209.807149 
L 273.675959 213.553756 
L 273.821088 214.698032 
L 274.329041 217.518097 
L 274.546735 217.543909 
L 274.76443 216.525425 
L 274.982124 215.589189 
L 275.490077 213.923773 
L 275.635206 214.253207 
L 275.707771 214.140941 
L 275.780336 214.365738 
L 275.8529 214.333413 
L 275.99803 214.117974 
L 276.070595 213.828204 
L 276.143159 213.883337 
L 276.360853 213.959771 
L 276.433418 213.784793 
L 276.505983 213.84406 
L 276.578548 214.097131 
L 276.796242 213.402795 
L 277.086501 212.271179 
L 277.521889 211.320033 
L 278.682924 204.730814 
L 278.828054 204.888828 
L 279.626266 203.091924 
L 279.69883 203.226709 
L 279.771395 202.895363 
L 279.84396 202.976341 
L 279.916525 202.832026 
L 280.061654 203.07633 
L 280.206783 203.094135 
L 280.351913 202.877315 
L 280.497042 202.825885 
L 280.642172 203.142535 
L 280.714736 203.127446 
L 281.07756 203.944951 
L 281.295254 203.692756 
L 281.585513 204.306915 
L 281.730643 204.417495 
L 281.803207 204.48043 
L 281.875772 204.283527 
L 281.948337 204.322957 
L 282.383725 206.943765 
L 282.528854 207.428197 
L 283.472196 210.424479 
L 283.54476 210.205428 
L 283.980149 210.997942 
L 284.633231 208.124626 
L 285.213749 205.305299 
L 285.576573 204.80609 
L 285.939396 205.606526 
L 286.011961 205.610616 
L 286.519914 209.17534 
L 286.665043 209.233797 
L 286.810173 209.159477 
L 287.53582 211.311429 
L 287.753514 211.535073 
L 288.261467 210.421272 
L 288.551726 209.396612 
L 288.624291 209.456771 
L 288.987114 208.841849 
L 289.204808 208.079489 
L 289.349938 208.545255 
L 289.495067 209.049134 
L 289.712761 208.748162 
L 289.785326 208.997 
L 290.075585 208.060338 
L 290.293279 208.628277 
L 290.438409 209.124866 
L 290.510973 209.065851 
L 290.656103 209.53314 
L 291.309185 207.505159 
L 291.744573 204.916341 
L 291.817138 204.804845 
L 292.034832 205.151286 
L 292.179962 205.058182 
L 292.397656 204.672728 
L 292.61535 205.461729 
L 292.687915 205.38895 
L 292.76048 205.468156 
L 292.905609 204.860391 
L 293.123303 204.6126 
L 293.268433 204.857678 
L 293.340997 204.769901 
L 293.413562 204.182794 
L 293.486127 204.195555 
L 293.703821 203.539799 
L 294.066644 202.107374 
L 294.284339 202.300724 
L 294.356903 202.057567 
L 294.429468 202.16394 
L 294.502033 202.278313 
L 294.574597 202.218609 
L 294.792292 201.54506 
L 295.009986 201.930181 
L 295.517939 200.263167 
L 295.590504 200.250327 
L 295.953327 199.306965 
L 296.243586 198.538394 
L 296.533845 199.106625 
L 296.751539 199.39979 
L 296.824104 199.677691 
L 296.896668 199.575557 
L 296.969233 199.374359 
L 297.041798 199.409904 
L 297.186927 199.367551 
L 297.477186 198.318553 
L 297.69488 197.753992 
L 297.912574 198.292814 
L 297.985139 198.159387 
L 298.275398 199.23146 
L 298.710786 197.0905 
L 298.783351 196.890262 
L 298.928481 197.396077 
L 299.001045 197.366185 
L 299.218739 196.851573 
L 299.436434 195.483406 
L 299.581563 195.340868 
L 299.726692 194.969479 
L 300.016951 195.616118 
L 300.162081 196.180387 
L 300.234645 196.10309 
L 300.45234 196.678151 
L 300.742598 196.902441 
L 300.960293 196.443188 
L 301.032857 196.485916 
L 301.177987 196.757706 
L 302.556716 192.798872 
L 302.701846 192.804865 
L 302.846975 192.995405 
L 303.645187 196.492647 
L 303.790317 197.115057 
L 304.008011 196.871751 
L 304.225705 197.462602 
L 304.443399 197.087567 
L 304.733658 196.608663 
L 304.951352 197.085569 
L 305.314176 197.064355 
L 305.459305 197.36461 
L 305.53187 197.373979 
L 305.676999 197.040441 
L 306.112388 197.90818 
L 306.184952 197.911109 
L 306.257517 197.723376 
L 306.330082 197.807367 
L 306.692905 198.685596 
L 307.055729 201.558278 
L 307.99907 207.711013 
L 308.071635 207.786651 
L 308.361894 209.7575 
L 308.652153 211.090257 
L 309.160106 212.350433 
L 309.450365 213.3814 
L 309.522929 213.406558 
L 309.740623 212.911007 
L 309.813188 212.944701 
L 310.103447 211.629511 
L 310.176012 211.585803 
L 310.466271 210.82983 
L 310.829094 211.098267 
L 310.901659 211.087023 
L 311.046788 210.770628 
L 311.119353 210.808719 
L 311.337047 210.462684 
L 311.699871 209.816425 
L 311.845 209.345441 
L 311.917565 209.410473 
L 311.99013 209.650629 
L 312.062694 209.577805 
L 312.135259 209.493785 
L 312.280389 209.112413 
L 312.715777 209.286269 
L 312.788342 209.302542 
L 313.0786 208.571452 
L 313.586553 207.721085 
L 313.949377 207.874727 
L 314.094506 207.261241 
L 314.384765 207.406657 
L 314.45733 207.456886 
L 314.747589 206.777435 
L 315.69093 201.159577 
L 315.981189 200.172984 
L 316.344013 198.911893 
L 316.706836 197.929819 
L 316.851966 198.144737 
L 317.359919 199.925347 
L 317.432483 199.908417 
L 317.722742 199.364786 
L 318.520954 202.197488 
L 318.593519 202.127349 
L 318.956343 200.818588 
L 319.028907 200.84351 
L 319.101472 201.011112 
L 319.174037 200.927039 
L 319.391731 200.223996 
L 319.827119 198.009992 
L 320.262507 196.315489 
L 320.407637 196.110506 
L 321.278413 200.022221 
L 321.496108 200.256761 
L 321.641237 200.040492 
L 321.713802 200.103255 
L 321.858931 200.391871 
L 321.931496 200.294246 
L 322.14919 199.534952 
L 322.366884 199.180266 
L 322.512014 198.854062 
L 322.584578 198.957291 
L 322.729708 198.827815 
L 322.802273 198.951675 
L 324.181002 192.312001 
L 324.326132 192.473661 
L 325.196908 196.081242 
L 325.632297 198.531295 
L 325.777426 198.441106 
L 326.14025 200.209129 
L 326.357944 199.615321 
L 326.575638 200.23202 
L 326.793332 201.109785 
L 326.938461 201.337121 
L 327.156156 200.883114 
L 327.37385 200.514669 
L 327.446414 200.677326 
L 327.954367 202.291538 
L 328.099497 202.086484 
L 328.389756 201.214541 
L 328.60745 201.489598 
L 328.752579 201.800426 
L 328.825144 201.64118 
L 329.115403 200.30141 
L 329.260532 200.173313 
L 329.405662 200.474691 
L 329.84105 202.349423 
L 330.131309 203.920995 
L 330.276438 204.265201 
L 330.421568 204.938525 
L 330.566697 204.837393 
L 330.784391 205.279577 
L 331.002086 205.59992 
L 331.21978 205.874837 
L 331.364909 205.608601 
L 331.510039 205.834458 
L 331.727733 205.500727 
L 331.872862 205.858397 
L 332.017992 205.381016 
L 332.235686 204.406649 
L 332.30825 204.488749 
L 332.380815 204.744347 
L 332.45338 204.721758 
L 332.598509 204.631888 
L 332.743639 205.199839 
L 332.816204 205.115738 
L 332.888768 205.130305 
L 333.469286 206.758926 
L 333.541851 206.798317 
L 333.68698 206.110712 
L 334.122368 203.665948 
L 334.267498 202.874835 
L 334.848016 206.941157 
L 334.92058 206.963192 
L 335.283404 207.849622 
L 335.355969 207.893928 
L 335.573663 207.274228 
L 335.646227 207.33707 
L 335.718792 207.448322 
L 336.009051 209.076061 
L 336.734698 213.403117 
L 336.879828 213.670723 
L 337.024957 213.636802 
L 337.242651 214.10314 
L 337.460345 213.291383 
L 337.895734 211.543091 
L 338.113428 211.889221 
L 338.185993 211.92957 
L 338.331122 211.491415 
L 338.548816 211.945698 
L 338.621381 211.781219 
L 338.693946 212.412069 
L 338.76651 212.257568 
L 338.91164 211.960226 
L 339.274463 213.692316 
L 339.419593 213.576771 
L 339.709852 212.34975 
L 340.000111 210.615676 
L 340.14524 210.525523 
L 340.217805 210.641353 
L 340.653193 212.937044 
L 340.870887 214.480095 
L 340.943452 214.110508 
L 341.016017 214.156886 
L 341.088581 214.32577 
L 341.161146 214.224724 
L 341.451405 214.113306 
L 342.031923 211.425083 
L 342.104487 211.400845 
L 342.322181 210.576916 
L 342.685005 207.654312 
L 342.830135 207.795719 
L 342.975264 207.503942 
L 343.192958 207.760021 
L 343.265523 207.667806 
L 343.338088 207.702229 
L 343.483217 207.33848 
L 343.555782 207.576519 
L 343.846041 206.187174 
L 344.136299 204.316604 
L 344.208864 204.062777 
L 344.281429 204.268285 
L 344.353994 204.23664 
L 344.571688 203.687283 
L 344.934511 201.291141 
L 345.3699 198.826855 
L 345.442464 198.950807 
L 345.515029 198.809109 
L 345.660158 199.25651 
L 345.732723 198.886248 
L 345.805288 198.959214 
L 345.877853 198.998033 
L 346.240676 197.776324 
L 346.748629 193.219732 
L 347.764535 184.546756 
L 347.8371 184.389794 
L 348.054794 183.226029 
L 348.635312 180.840182 
L 349.288394 174.890945 
L 349.433524 173.243063 
L 350.086606 165.174189 
L 350.231736 163.942486 
L 350.739689 159.120622 
L 350.957383 157.064914 
L 351.175077 155.757956 
L 351.392771 154.944079 
L 351.465336 155.004515 
L 351.610465 154.010401 
L 351.68303 154.123495 
L 351.828159 154.351206 
L 352.118418 152.953284 
L 352.263548 152.391715 
L 352.844066 147.118856 
L 352.989195 146.288184 
L 353.134324 146.710352 
L 353.424583 145.87923 
L 353.497148 145.968925 
L 353.714842 144.885637 
L 353.859972 145.664982 
L 354.440489 149.065293 
L 354.513054 149.232319 
L 354.730748 150.208216 
L 355.021007 148.902339 
L 355.093572 148.631592 
L 355.383831 149.155444 
L 355.601525 149.091416 
L 355.819219 148.356262 
L 355.964348 148.477522 
L 356.036913 148.564539 
L 356.254607 148.00255 
L 356.327172 147.971617 
L 356.76256 145.673011 
L 356.835125 145.72795 
L 357.052819 144.813528 
L 357.270513 144.148633 
L 357.343078 144.022379 
L 357.560772 144.538815 
L 357.923596 143.386909 
L 358.068725 143.430093 
L 358.14129 143.336009 
L 358.358984 143.532522 
L 358.721808 142.301459 
L 359.012066 141.848194 
L 359.447455 138.982267 
L 359.52002 139.021677 
L 359.737714 139.369194 
L 359.882843 139.173325 
L 360.245667 137.889921 
L 361.406702 127.322528 
L 361.84209 127.117157 
L 361.98722 126.815678 
L 362.132349 127.167237 
L 362.495173 128.630654 
L 362.857997 127.868619 
L 364.091597 121.526822 
L 364.164161 121.578667 
L 364.381856 122.201026 
L 364.45442 122.152397 
L 364.817244 121.204655 
L 364.889809 121.087733 
L 365.978279 115.746216 
L 366.050844 115.67772 
L 366.341103 114.462688 
L 366.413668 114.443906 
L 366.703927 112.998716 
L 367.284444 110.874645 
L 367.357009 111.070659 
L 367.429574 111.012292 
L 367.719833 110.341145 
L 367.792397 110.243466 
L 368.010091 111.331459 
L 368.155221 112.081288 
L 368.44548 113.910603 
L 368.663174 114.706905 
L 369.171127 113.047193 
L 369.388821 112.148636 
L 369.606515 111.739324 
L 369.67908 111.581012 
L 369.751645 111.727884 
L 370.041904 110.941617 
L 370.404727 108.30378 
L 370.549857 107.488341 
L 370.840115 105.911286 
L 370.91268 105.854731 
L 371.202939 103.906291 
L 371.420633 104.06243 
L 371.493198 103.656136 
L 371.565763 103.687435 
L 371.638327 103.498172 
L 371.856021 104.457496 
L 371.928586 104.367146 
L 372.29141 102.812433 
L 372.363974 102.86969 
L 372.436539 102.4682 
L 372.509104 102.60357 
L 372.726798 102.542436 
L 372.871928 103.144703 
L 373.234751 101.172072 
L 374.178092 90.147761 
L 374.250657 90.08756 
L 374.323222 90.377595 
L 374.395787 90.3499 
L 374.613481 89.476461 
L 374.75861 89.993849 
L 374.90374 90.932838 
L 374.976304 90.906658 
L 375.048869 90.901103 
L 375.484257 88.448641 
L 375.701951 86.198558 
L 376.355034 77.744671 
L 376.572728 76.324706 
L 376.862987 72.145344 
L 377.951458 59.341208 
L 378.386846 57.612902 
L 378.60454 56.197307 
L 378.894799 53.568 
L 379.039928 53.998576 
L 381.652258 75.093991 
L 381.869952 75.756108 
L 381.942517 75.652264 
L 382.160211 74.596007 
L 382.305341 74.595707 
L 382.377905 74.738366 
L 382.45047 74.586396 
L 382.5956 75.004006 
L 383.321247 78.609416 
L 383.538941 77.681739 
L 383.974329 74.529087 
L 384.337153 72.344919 
L 384.409718 72.41183 
L 384.699976 72.093645 
L 384.772541 72.238882 
L 384.845106 71.998587 
L 384.917671 72.143812 
L 384.990235 71.948834 
L 385.135365 71.168159 
L 385.498188 71.884381 
L 385.643318 71.494438 
L 385.788447 72.2286 
L 385.861012 72.188734 
L 386.006141 72.601383 
L 386.223835 72.137448 
L 386.2964 72.215053 
L 386.368965 72.103949 
L 386.586659 71.176051 
L 386.804353 72.136957 
L 386.876918 72.087686 
L 386.949483 72.070305 
L 387.022047 72.172436 
L 387.094612 72.010996 
L 387.384871 72.729884 
L 387.965389 74.88485 
L 388.110518 74.596439 
L 388.328212 74.166426 
L 388.400777 74.195848 
L 388.545906 73.328311 
L 389.126424 68.081681 
L 389.198989 67.657094 
L 389.271554 67.680908 
L 389.344118 67.947232 
L 389.416683 67.825558 
L 389.779507 66.54088 
L 389.852071 66.698197 
L 389.924636 66.568556 
L 390.069766 67.097174 
L 390.28746 67.826556 
L 390.577719 66.699797 
L 391.085672 63.640751 
L 391.448495 59.36474 
L 391.738754 58.238862 
L 391.883883 58.233966 
L 391.956448 58.312094 
L 392.246707 59.810979 
L 392.391836 61.128573 
L 392.827225 64.727401 
L 393.625437 70.508332 
L 393.770566 70.499252 
L 394.060825 69.371365 
L 394.423649 67.501411 
L 394.713907 66.968551 
L 394.859037 67.390934 
L 395.004166 67.284696 
L 395.149296 66.841139 
L 395.439555 67.929651 
L 395.729813 70.133024 
L 396.237766 71.37011 
L 396.310331 71.412004 
L 397.035978 74.102619 
L 397.108543 74.138119 
L 397.543931 75.656977 
L 397.616496 75.762023 
L 397.97932 74.930067 
L 398.269579 76.049121 
L 398.342143 76.171215 
L 398.414708 76.118496 
L 398.487273 76.034534 
L 398.487273 76.034534 
" style="fill:none;stroke:#ffff00;stroke-linecap:square;stroke-width:1.5;"/>
   </g>
   <g id="line2d_16">
    <path clip-path="url(#p7e6264b3b6)" d="M 73.832727 279.13742 
L 74.195551 276.903442 
L 74.268116 277.070863 
L 74.848633 280.549612 
L 75.57428 285.860402 
L 76.009669 287.33715 
L 76.880445 289.641492 
L 77.460963 290.560204 
L 77.896351 290.965411 
L 78.549434 291.261638 
L 78.839693 291.253512 
L 79.347646 290.956182 
L 80.726375 289.9354 
L 81.959976 289.707893 
L 82.395364 289.760828 
L 84.209482 290.190598 
L 85.007694 290.074888 
L 85.87847 289.679587 
L 86.676682 289.174239 
L 87.2572 288.510872 
L 88.4908 286.932068 
L 90.014659 285.36623 
L 91.248259 284.058407 
L 92.119036 282.705472 
L 96.037531 276.252742 
L 98.79499 272.740023 
L 100.391414 270.595326 
L 101.625014 268.832383 
L 103.221438 265.99204 
L 104.309909 263.666509 
L 105.25325 261.082338 
L 106.341721 257.60152 
L 110.33278 243.43489 
L 112.364592 238.061909 
L 115.339746 230.946833 
L 117.008734 227.479031 
L 118.895417 224.099972 
L 120.056452 222.495837 
L 120.782099 221.814852 
L 121.507747 221.398504 
L 122.305958 221.229137 
L 123.10417 221.226528 
L 123.757253 221.4555 
L 125.86163 222.611992 
L 127.385489 223.543795 
L 128.401395 224.146568 
L 131.303983 226.33528 
L 134.424266 228.208344 
L 135.367608 229.042488 
L 136.383514 230.172413 
L 139.358667 233.467196 
L 140.447138 234.494218 
L 141.753303 235.33612 
L 142.33382 235.526217 
L 142.914338 235.48835 
L 143.639985 235.194768 
L 144.873586 234.687841 
L 146.470009 234.111832 
L 149.227469 232.553888 
L 152.78314 230.524117 
L 153.726481 230.27043 
L 154.669822 230.250496 
L 155.540599 230.524829 
L 157.572411 231.650316 
L 158.951141 232.379783 
L 160.982953 233.285375 
L 162.506812 234.003141 
L 164.248365 234.63483 
L 165.409401 234.833053 
L 166.497871 234.875403 
L 168.311989 234.951759 
L 171.940225 235.499618 
L 173.464084 235.867346 
L 174.987943 236.157536 
L 177.310014 236.449753 
L 178.32592 236.566277 
L 179.196697 236.403391 
L 183.55058 235.401513 
L 186.16291 234.900748 
L 187.469075 234.578264 
L 189.210628 234.214475 
L 190.444228 233.749248 
L 191.968087 232.762445 
L 194.217593 231.138413 
L 196.902488 228.735221 
L 198.789171 226.866679 
L 200.748418 225.263001 
L 203.651007 223.202648 
L 205.973078 221.027459 
L 207.642066 219.481131 
L 211.487996 215.417053 
L 214.825973 212.191036 
L 216.059573 211.039037 
L 217.946256 209.65763 
L 218.744468 209.419569 
L 220.848845 208.945148 
L 223.24348 208.065085 
L 224.186822 208.083977 
L 225.420422 208.367799 
L 226.726587 208.872231 
L 228.613269 209.795058 
L 230.064564 210.516104 
L 231.08047 210.78798 
L 232.096376 210.873407 
L 233.54767 210.783375 
L 238.6272 210.356312 
L 240.296189 210.218457 
L 241.965177 210.316441 
L 243.924425 210.721276 
L 245.448284 211.151255 
L 246.754449 211.310964 
L 247.915484 211.547042 
L 249.221649 211.76152 
L 251.108332 211.616345 
L 255.171956 211.267886 
L 256.62325 211.09146 
L 258.437368 210.554052 
L 261.194827 209.779461 
L 262.863816 209.76162 
L 264.823063 209.720181 
L 267.653087 209.577457 
L 269.757464 209.755123 
L 272.224665 210.518882 
L 273.893653 210.534239 
L 276.288289 211.131392 
L 277.667018 211.233651 
L 278.537795 211.072073 
L 280.569607 210.276647 
L 282.166031 209.755293 
L 283.254502 209.657531 
L 285.141184 209.609272 
L 286.665043 209.351979 
L 287.971208 209.446714 
L 289.132244 209.457683 
L 292.542785 209.095179 
L 294.139209 208.673039 
L 296.243586 207.811243 
L 302.556716 204.546645 
L 303.717752 203.919802 
L 306.620341 202.943712 
L 307.345988 202.873549 
L 308.071635 202.998884 
L 309.087541 203.416031 
L 311.191918 204.335287 
L 312.860906 204.798112 
L 314.312201 205.036494 
L 315.328107 205.063094 
L 316.489142 204.763619 
L 318.085566 204.303833 
L 320.189943 203.836402 
L 321.278413 203.497995 
L 323.38279 203.000607 
L 326.14025 201.960507 
L 328.026932 201.861355 
L 331.147215 202.000123 
L 334.049804 202.512843 
L 335.138274 202.682503 
L 336.589569 203.18493 
L 338.621381 204.181781 
L 342.249617 205.709 
L 343.120393 205.829734 
L 344.353994 205.851057 
L 345.22477 205.67153 
L 346.676065 205.055937 
L 347.401712 204.471626 
L 348.635312 203.085026 
L 349.506089 201.828768 
L 350.376865 200.174074 
L 351.828159 196.82759 
L 353.642277 192.255971 
L 354.875878 189.348226 
L 361.84209 173.7483 
L 365.107503 165.629524 
L 367.719833 158.710366 
L 369.025997 155.538073 
L 371.638327 149.195317 
L 374.613481 141.471012 
L 376.862987 134.737693 
L 378.169152 129.787361 
L 380.273529 121.951587 
L 381.434564 118.692033 
L 383.030988 115.051151 
L 388.400777 104.360654 
L 389.561812 102.211589 
L 393.625437 94.587646 
L 396.74572 90.621589 
L 398.124449 89.469363 
L 398.487273 89.203638 
L 398.487273 89.203638 
" style="fill:none;stroke:#00ffff;stroke-linecap:square;stroke-width:1.5;"/>
   </g>
   <g id="line2d_17">
    <path clip-path="url(#p7e6264b3b6)" d="M 110.33278 199.518288 
L 110.695604 198.095118 
L 110.913298 198.045133 
L 111.130992 197.176602 
L 111.348686 197.960196 
L 111.638945 200.118228 
L 111.784074 200.343689 
L 111.929204 199.759809 
L 112.074333 199.24429 
L 112.146898 199.283156 
L 112.437157 198.229764 
L 112.79998 196.562769 
L 113.162804 195.466498 
L 113.235369 195.638508 
L 113.380498 196.300167 
L 113.670757 195.339722 
L 113.743322 195.378752 
L 113.961016 194.723007 
L 114.033581 194.766376 
L 114.17871 195.044883 
L 114.251275 194.912543 
L 114.32384 195.046651 
L 114.614098 196.254811 
L 114.759228 196.653571 
L 115.194616 194.845964 
L 115.55744 194.204673 
L 115.630004 194.11609 
L 115.920263 193.391714 
L 116.500781 196.500149 
L 116.573346 196.483056 
L 116.645911 196.576383 
L 117.226428 195.772385 
L 117.371558 195.946103 
L 117.589252 196.431917 
L 117.806946 196.142561 
L 117.879511 196.159525 
L 118.097205 195.465816 
L 118.16977 195.656022 
L 118.314899 195.405326 
L 118.387464 195.419976 
L 118.750287 197.082698 
L 119.25824 199.86988 
L 119.40337 200.153775 
L 119.548499 200.462582 
L 119.766193 200.406976 
L 119.983888 201.465291 
L 120.346711 205.468079 
L 120.63697 208.231264 
L 120.927229 209.896622 
L 121.290052 212.790485 
L 122.0157 218.600873 
L 122.305958 218.748742 
L 123.10417 223.378419 
L 123.176735 224.264655 
L 123.176735 224.264655 
" style="fill:none;stroke:#008000;stroke-linecap:square;stroke-width:1.5;"/>
   </g>
   <g id="patch_3">
    <path d="M 57.6 307.584 
L 57.6 41.472 
" style="fill:none;stroke:#000000;stroke-linecap:square;stroke-linejoin:miter;stroke-width:0.8;"/>
   </g>
   <g id="patch_4">
    <path d="M 414.72 307.584 
L 414.72 41.472 
" style="fill:none;stroke:#000000;stroke-linecap:square;stroke-linejoin:miter;stroke-width:0.8;"/>
   </g>
   <g id="patch_5">
    <path d="M 57.6 307.584 
L 414.72 307.584 
" style="fill:none;stroke:#000000;stroke-linecap:square;stroke-linejoin:miter;stroke-width:0.8;"/>
   </g>
   <g id="patch_6">
    <path d="M 57.6 41.472 
L 414.72 41.472 
" style="fill:none;stroke:#000000;stroke-linecap:square;stroke-linejoin:miter;stroke-width:0.8;"/>
   </g>
  </g>
 </g>
 <defs>
  <clipPath id="p7e6264b3b6">
   <rect height="266.112" width="357.12" x="57.6" y="41.472"/>
  </clipPath>
 </defs>
</svg>
